<?xml version="1.0" standalone="no"?>
<!DOCTYPE svg PUBLIC "-//W3C//DTD SVG 20010904//EN"
 "http://www.w3.org/TR/2001/REC-SVG-20010904/DTD/svg10.dtd">
<svg version="1.0" xmlns="http://www.w3.org/2000/svg"
 width="512.000000pt" height="512.000000pt" viewBox="0 0 512.000000 512.000000"
 preserveAspectRatio="xMidYMid meet">
<metadata>
Created by potrace 1.14, written by Peter Selinger 2001-2017
</metadata>
<g transform="translate(0.000000,512.000000) scale(0.100000,-0.100000)"
fill="#000000" stroke="none">
<path d="M904 4693 c-13 -13 -24 -28 -24 -34 0 -6 -5 -7 -12 -3 -8 5 -9 2 -5
-9 4 -10 1 -17 -5 -17 -6 0 -9 -3 -5 -6 3 -3 0 -22 -7 -42 -7 -21 -11 -43 -8
-51 2 -8 0 -11 -6 -7 -5 3 -13 -1 -16 -10 -3 -8 -2 -12 3 -9 5 3 12 1 16 -5 3
-5 1 -10 -5 -10 -7 0 -9 -8 -5 -21 5 -15 4 -19 -4 -15 -10 6 -16 -13 -12 -36
0 -5 -3 -8 -8 -8 -6 0 -10 -8 -10 -17 0 -10 -2 -27 -5 -38 -2 -11 -5 -24 -5
-29 -1 -4 -8 -6 -15 -3 -10 4 -13 1 -9 -8 3 -8 9 -12 14 -9 5 3 9 0 9 -5 0 -6
-7 -11 -16 -11 -8 0 -12 -5 -9 -10 4 -6 11 -7 17 -4 7 4 8 2 4 -5 -4 -6 -12
-9 -17 -6 -5 4 -8 -4 -6 -17 1 -14 -3 -22 -10 -20 -7 1 -13 -2 -13 -8 0 -5 -5
-10 -10 -10 -6 0 -5 8 2 20 9 14 15 16 21 7 6 -8 7 -8 4 3 -2 8 -12 13 -22 12
-16 -3 -17 -1 -6 12 7 9 17 14 21 11 4 -2 7 10 6 28 -1 21 3 31 12 30 20 -5
13 14 -8 20 -13 3 -18 11 -14 20 3 8 1 18 -5 22 -7 4 -8 0 -4 -11 4 -12 3 -15
-5 -10 -7 4 -12 2 -12 -3 0 -6 6 -11 13 -11 8 0 7 -4 -3 -11 -13 -9 -12 -10 3
-5 19 6 21 -2 7 -24 -6 -10 -10 -11 -10 -2 0 6 -5 12 -11 12 -5 0 -7 -4 -4
-10 3 -5 2 -10 -4 -10 -5 0 -13 9 -16 21 -4 11 -9 18 -12 16 -10 -10 19 -48
34 -45 9 2 18 -2 20 -9 3 -8 -6 -10 -26 -7 -29 5 -40 -4 -24 -20 12 -12 12
-37 0 -33 -7 2 -12 10 -12 17 0 7 -7 15 -15 17 -12 4 -12 3 -2 -5 8 -5 13 -12
13 -16 -1 -15 12 -35 20 -30 5 3 9 -2 9 -10 0 -9 -3 -16 -7 -16 -13 1 -43 27
-38 32 3 2 -1 5 -9 5 -23 0 -7 -24 25 -37 16 -7 26 -17 23 -22 -4 -6 -10 -6
-17 1 -6 6 -15 11 -21 11 -5 0 -2 -6 9 -13 17 -13 17 -15 -6 -31 l-24 -18 25
8 c21 6 23 5 12 -8 -7 -9 -9 -23 -6 -33 6 -15 4 -16 -16 -5 -18 10 -20 14 -9
21 8 5 9 9 3 9 -6 0 -13 -3 -17 -6 -9 -10 4 -34 19 -34 8 0 14 -4 14 -10 0 -5
-7 -10 -15 -10 -8 0 -15 -4 -15 -8 0 -5 7 -9 15 -9 8 0 15 5 15 10 0 15 14 -1
16 -19 2 -10 -3 -13 -14 -10 -9 3 -24 1 -32 -4 -8 -5 -10 -10 -5 -11 6 0 -1
-5 -15 -9 -23 -7 -24 -8 -3 -9 12 -1 26 7 32 16 5 10 13 14 18 10 4 -5 -2 -17
-14 -26 -17 -14 -19 -21 -10 -31 10 -10 9 -12 -4 -7 -13 4 -15 1 -12 -14 3
-11 0 -19 -6 -19 -7 0 -9 5 -5 13 5 8 3 8 -9 -2 -21 -17 -12 -34 12 -22 15 8
18 6 18 -19 0 -19 -4 -26 -14 -23 -7 3 -10 10 -7 17 3 6 -3 1 -14 -11 -11 -12
-23 -19 -26 -15 -4 3 -4 -2 0 -13 5 -11 9 -14 12 -7 2 7 8 10 13 7 5 -4 6 1 3
10 -5 11 -2 14 10 9 21 -8 20 -20 -4 -37 -11 -8 -17 -17 -12 -22 4 -4 -1 -5
-11 -2 -10 4 -16 3 -12 -2 3 -5 -1 -12 -7 -14 -10 -4 -10 -6 -1 -6 7 -1 22 8
34 20 25 25 37 18 17 -10 -8 -12 -18 -18 -21 -14 -4 3 -7 1 -7 -6 0 -6 6 -11
13 -10 25 3 33 -2 34 -21 1 -13 -2 -18 -10 -13 -7 4 -5 -2 3 -12 13 -17 13
-18 -1 -13 -19 7 -47 -8 -36 -19 5 -4 12 -2 16 6 6 10 10 9 15 -4 9 -24 9 -24
-21 -19 -16 2 -23 1 -18 -3 6 -5 11 -15 13 -23 2 -8 11 -23 19 -32 10 -12 12
-18 4 -18 -6 0 -20 15 -31 33 -11 17 -20 27 -20 21 0 -6 9 -23 20 -37 l21 -26
-29 4 c-25 3 -29 0 -27 -18 1 -12 3 -24 4 -26 0 -2 10 4 21 14 11 10 23 16 26
13 3 -3 -8 -16 -23 -28 -21 -17 -23 -21 -9 -18 10 1 21 -3 23 -10 3 -7 1 -12
-4 -11 -19 3 -33 -2 -33 -12 0 -8 4 -8 14 0 10 8 16 9 21 1 3 -5 2 -10 -2 -10
-5 0 -18 -7 -29 -15 -18 -15 -18 -15 0 -8 15 5 17 3 11 -8 -7 -12 -6 -12 7 -1
10 8 19 9 22 3 4 -5 -3 -12 -14 -16 -11 -3 -20 -11 -20 -17 0 -6 3 -8 7 -5 3
4 12 -1 19 -11 21 -27 16 -37 -8 -16 -12 10 -18 13 -14 7 4 -7 2 -13 -4 -13
-6 0 -9 -4 -6 -9 3 -5 -2 -15 -11 -22 -14 -12 -15 -11 -10 6 4 11 3 26 -2 33
-5 8 -7 -4 -7 -30 1 -24 5 -49 9 -56 5 -7 0 -24 -13 -42 -20 -28 -17 -36 13
-31 9 1 9 -13 0 -22 -3 -4 -12 -2 -19 4 -9 8 -18 7 -31 -1 -15 -9 -14 -10 7
-4 21 6 23 5 12 -8 -10 -13 -10 -17 1 -21 18 -7 16 -69 -2 -75 -9 -3 -11 0 -6
8 5 9 4 11 -3 6 -19 -11 -14 -22 14 -34 19 -9 24 -9 18 -1 -4 7 -3 9 3 6 7 -4
10 5 8 23 -1 16 1 28 5 25 9 -6 7 36 -3 53 -5 6 -4 12 0 12 5 0 15 -6 22 -12
11 -10 13 -10 7 0 -4 6 -3 12 3 12 5 0 9 -9 8 -19 0 -11 -4 -18 -8 -15 -12 7
-16 -44 -5 -57 8 -9 8 -10 0 -6 -12 7 -28 -26 -25 -50 1 -7 -2 -13 -6 -13 -5
0 -14 -14 -22 -30 -11 -26 -15 -29 -28 -18 -13 10 -19 8 -39 -17 -13 -17 -19
-31 -14 -33 6 -2 10 -8 10 -14 0 -6 -8 -7 -17 -3 -39 15 -47 15 -20 0 15 -9
32 -13 37 -10 5 3 11 1 15 -5 6 -10 -7 -14 -33 -11 -10 2 -12 -4 -7 -18 5 -15
2 -21 -10 -21 -10 0 -13 5 -9 13 4 6 3 9 -1 4 -17 -15 -11 -47 12 -62 26 -17
32 -38 8 -29 -8 4 -15 1 -15 -6 0 -6 4 -8 10 -5 5 3 10 2 10 -4 0 -19 -25 -18
-36 2 -10 17 -12 18 -17 3 -4 -10 -3 -15 2 -12 9 6 26 -22 22 -38 -1 -4 3 -14
9 -21 8 -10 7 -16 -7 -24 -10 -6 -13 -11 -6 -11 6 0 18 6 26 14 11 12 15 11
26 -6 11 -18 11 -20 -3 -15 -18 7 -56 -29 -55 -52 0 -12 2 -11 8 3 9 23 18 10
15 -21 0 -12 2 -20 7 -18 4 3 11 0 15 -6 5 -8 -1 -10 -18 -7 -20 4 -25 1 -23
-11 2 -9 4 -19 4 -23 1 -5 9 -8 19 -8 16 -1 16 -2 -1 -14 -16 -12 -17 -18 -6
-38 7 -13 12 -25 12 -28 0 -3 2 -13 5 -22 5 -19 24 -25 20 -7 -2 6 2 13 7 15
6 2 11 -7 11 -19 2 -25 -21 -32 -43 -14 -7 5 -13 6 -13 2 0 -11 41 -45 54 -44
6 0 6 3 -1 6 -18 7 -16 20 2 20 17 0 28 -24 15 -32 -18 -11 -50 -14 -50 -4 0
5 -8 9 -17 9 -14 0 -13 -3 5 -16 12 -8 20 -20 16 -25 -3 -6 -12 -5 -22 3 -14
12 -14 10 -3 -10 l12 -23 20 25 c20 25 47 37 34 16 -4 -6 -1 -17 5 -25 15 -18
-1 -20 -19 -2 -9 7 -11 7 -8 1 4 -7 0 -15 -9 -18 -13 -5 -13 -9 3 -30 14 -19
20 -21 26 -10 4 8 5 19 2 24 -3 6 -2 10 4 10 18 0 22 -19 10 -42 -9 -17 -9
-24 5 -33 19 -14 11 -26 -12 -18 -14 4 -15 3 -2 -5 9 -7 18 -8 26 -1 8 7 14 6
19 -1 3 -5 0 -10 -7 -10 -9 -1 -8 -4 3 -10 11 -6 15 -20 13 -40 -3 -29 8 -40
21 -20 3 6 11 10 17 10 7 0 6 -5 -2 -15 -16 -19 -3 -37 22 -29 20 6 20 5 5
-16 -8 -12 -13 -28 -11 -35 3 -7 1 -16 -5 -20 -6 -3 -11 -10 -11 -15 0 -5 14
4 32 20 17 16 36 26 41 23 5 -3 -4 -14 -19 -24 -27 -17 -53 -51 -37 -48 20 3
27 -2 13 -11 -10 -6 -5 -8 19 -7 20 1 36 -3 38 -11 3 -8 -2 -10 -14 -6 -14 5
-15 4 -3 -4 8 -6 18 -8 22 -6 4 3 8 -2 8 -11 0 -9 -4 -13 -10 -10 -5 3 -10 1
-10 -4 0 -15 12 -14 37 4 18 13 22 12 39 -7 19 -21 19 -21 -2 -10 -11 6 -26 7
-33 2 -17 -10 -4 -33 14 -26 9 3 13 -2 12 -15 -1 -10 -7 -19 -14 -19 -7 0 -13
-5 -13 -11 0 -7 10 -5 25 5 34 22 45 20 17 -4 -14 -11 -20 -24 -16 -31 5 -9 2
-10 -10 -6 -11 5 -15 3 -10 -5 5 -7 2 -9 -7 -6 -10 4 -15 -1 -15 -12 0 -16 4
-15 33 7 18 14 30 29 27 34 -3 5 -1 9 5 9 22 0 19 -20 -6 -41 -16 -12 -20 -19
-11 -16 14 5 16 1 13 -25 -4 -28 -3 -29 14 -14 19 18 51 22 51 6 0 -5 -6 -7
-13 -4 -8 3 -20 -2 -27 -11 -7 -9 -8 -15 -2 -15 6 0 12 6 15 13 2 6 7 9 11 5
4 -3 0 -20 -9 -38 -9 -18 -13 -39 -9 -48 4 -10 6 -21 5 -25 -1 -4 5 -18 14
-30 18 -26 19 -35 3 -33 -7 0 -14 -2 -15 -7 -5 -14 -28 -35 -35 -30 -4 2 -5
-3 -2 -11 3 -9 10 -16 16 -16 5 0 7 4 4 9 -3 5 1 14 9 21 8 7 12 16 9 21 -3 5
0 9 5 9 14 0 14 -27 1 -35 -6 -3 -10 -10 -10 -16 0 -5 8 -1 18 9 10 9 17 23
14 30 -2 7 2 11 9 9 8 -2 11 -2 6 0 -4 3 3 13 15 24 13 10 17 18 10 19 -10 0
-10 4 0 19 8 13 16 17 23 11 8 -7 12 -5 12 5 0 8 -4 12 -8 9 -4 -2 -6 5 -4 17
4 17 2 19 -10 9 -10 -8 -15 -9 -15 -2 0 20 21 24 39 8 10 -9 21 -13 24 -9 9 9
9 23 0 21 -15 -3 -43 14 -37 23 3 5 0 9 -6 9 -6 0 -9 4 -5 9 3 5 1 12 -5 16
-6 4 -8 11 -4 16 3 5 2 9 -3 8 -4 -1 -15 -1 -23 0 -13 1 -13 2 0 11 12 8 12
10 1 10 -11 0 -11 3 -1 15 9 10 9 15 1 15 -6 0 -10 6 -9 13 2 6 -3 11 -10 9
-8 -1 -11 2 -6 9 5 8 3 9 -7 3 -8 -4 -19 -9 -26 -10 -15 -3 -12 34 4 40 7 3
10 -1 7 -8 -4 -10 4 -13 25 -12 30 1 37 6 25 19 -4 3 -15 2 -26 -4 -17 -9 -18
-8 -9 10 14 26 28 34 36 21 3 -5 12 -10 18 -10 7 1 2 9 -11 20 -12 10 -21 24
-20 31 2 6 -2 13 -8 16 -6 2 -10 -6 -9 -19 3 -30 -3 -45 -21 -52 -18 -7 -18
-1 2 18 8 9 10 16 4 16 -6 0 -13 -7 -16 -15 -6 -14 -8 -13 -19 2 -10 14 -11
21 -2 32 10 12 9 13 -2 6 -10 -6 -12 -4 -6 5 5 9 4 11 -4 6 -6 -4 -11 -4 -10
1 1 4 1 15 0 23 -1 13 -2 13 -12 0 -8 -12 -9 -10 -4 8 4 13 2 22 -5 22 -6 0
-9 -4 -6 -8 2 -4 1 -14 -3 -21 -6 -9 -11 -10 -15 -2 -4 6 -3 11 2 11 5 0 9 7
9 15 0 8 -5 11 -10 8 -6 -3 -7 -1 -3 5 3 6 -2 15 -11 21 -14 8 -15 10 -3 11
13 0 13 1 0 10 -13 8 -13 10 -1 10 11 0 9 4 -5 16 -18 15 -18 15 3 5 29 -15
33 -14 27 4 -4 8 -10 13 -14 10 -15 -9 -36 5 -37 26 -2 16 2 19 15 14 14 -5
15 -4 4 7 -12 11 -17 9 -29 -10 -9 -12 -21 -22 -27 -22 -6 0 -5 4 3 9 12 8 12
12 2 25 -7 9 -18 13 -25 9 -7 -4 -7 -1 1 7 9 10 9 19 -3 41 -8 16 -12 29 -8
29 4 0 0 8 -7 17 -8 9 -9 14 -3 10 6 -3 11 0 11 8 0 8 -5 11 -10 8 -6 -4 -7
-1 -2 7 5 8 4 11 -3 6 -7 -4 -10 1 -7 14 2 11 -2 20 -8 20 -7 0 -6 4 3 11 13
9 12 10 -3 5 -12 -4 -16 -2 -11 6 4 6 3 8 -2 5 -6 -3 -10 5 -10 18 0 13 4 21
10 18 5 -3 6 -1 2 5 -5 8 -1 10 11 6 15 -5 15 -4 3 4 -8 6 -18 8 -24 5 -5 -4
-6 0 -1 8 8 12 6 12 -8 0 -11 -9 -17 -10 -17 -2 0 6 5 11 11 11 5 0 7 5 3 11
-4 8 -9 7 -15 -2 -6 -10 -9 -10 -9 -2 0 6 5 15 10 18 6 3 8 17 6 30 -3 13 -1
26 2 28 4 2 0 2 -8 0 -10 -2 -8 3 5 13 15 12 16 15 3 11 -11 -4 -15 -1 -13 11
1 10 10 16 22 15 11 -1 20 4 20 12 0 8 -8 13 -18 12 -10 -1 -17 3 -16 8 1 6 9
9 17 8 11 -1 9 3 -4 13 -14 10 -16 14 -5 14 12 0 12 2 -1 11 -13 9 -12 10 3 5
24 -8 21 1 -4 15 -16 8 -20 8 -14 -1 5 -8 1 -7 -14 1 -24 15 -7 32 18 19 9 -5
24 -11 35 -14 14 -5 16 -9 7 -20 -7 -8 -8 -17 -3 -20 5 -3 8 -17 7 -31 -2 -14
2 -25 8 -25 7 -1 1 -7 -13 -16 -24 -14 -24 -14 -2 -9 20 6 22 4 18 -20 -3 -16
0 -28 8 -31 7 -3 13 -11 13 -19 0 -8 -4 -12 -9 -9 -4 3 -8 0 -8 -5 0 -6 5 -11
10 -11 6 0 9 -6 8 -12 -2 -7 2 -12 8 -11 5 1 11 -9 12 -23 3 -47 5 -54 15 -54
6 0 2 -8 -7 -19 -15 -17 -15 -19 -1 -25 9 -3 13 -2 10 3 -3 5 0 13 6 17 8 4 9
3 5 -4 -4 -7 -1 -12 6 -12 8 -1 6 -6 -6 -15 -10 -8 -22 -12 -27 -10 -14 9 -17
-10 -3 -23 8 -7 14 -8 14 -3 0 6 10 15 21 22 15 8 19 8 15 0 -4 -6 -2 -11 4
-11 7 0 10 -6 7 -14 -6 -16 16 -40 26 -29 4 3 7 1 7 -5 0 -7 -5 -12 -11 -12
-5 0 -7 -5 -4 -10 4 -6 12 -7 18 -3 8 4 8 1 -1 -9 -18 -22 -24 -60 -9 -55 7 2
13 9 13 15 4 35 5 36 15 20 13 -23 12 -33 -3 -33 -6 0 -13 -6 -16 -13 -2 -7 2
-10 12 -6 9 3 16 1 16 -6 0 -6 -4 -8 -10 -5 -5 3 -10 2 -10 -3 0 -6 7 -13 16
-16 22 -8 24 -8 20 7 -1 6 -1 9 1 5 2 -4 12 -4 21 -1 14 4 14 3 3 -5 -8 -6
-16 -20 -18 -33 -3 -18 -1 -20 12 -9 8 7 12 17 8 23 -4 6 -1 7 6 2 9 -5 10
-10 2 -18 -16 -16 -13 -32 3 -18 10 9 16 8 25 -3 10 -11 9 -16 -5 -24 -15 -8
-15 -10 0 -15 9 -4 16 -1 16 6 0 6 7 2 15 -9 8 -12 12 -31 10 -43 -4 -23 10
-29 19 -8 3 6 3 1 -1 -13 -5 -21 -4 -23 8 -13 12 10 17 8 27 -8 7 -10 9 -18 5
-17 -16 4 -53 -14 -48 -23 4 -5 14 -5 26 1 11 6 23 8 28 5 5 -3 12 0 14 5 3 6
4 5 3 -2 -2 -7 -11 -11 -21 -10 -16 3 -17 2 -6 -12 11 -13 17 -14 30 -4 12 9
11 7 -2 -8 -11 -11 -21 -15 -25 -9 -4 6 -17 11 -30 12 -20 3 -21 1 -10 -17 7
-11 16 -20 21 -20 4 0 5 5 1 11 -5 8 -1 8 14 0 15 -8 23 -7 32 4 7 8 20 15 29
14 10 0 7 -4 -8 -10 -22 -8 -22 -11 -9 -27 16 -18 14 -42 -4 -42 -6 0 -6 6 2
15 16 19 1 19 -23 0 -11 -7 -26 -11 -35 -7 -15 5 -15 4 -3 -12 9 -11 18 -13
24 -7 11 11 39 3 31 -10 -3 -5 0 -9 5 -9 6 0 11 5 11 10 0 6 5 10 12 10 8 0 7
-6 -4 -16 -12 -12 -20 -14 -36 -5 -18 10 -32 6 -32 -9 0 -14 74 -14 78 0 2 5
8 10 14 10 6 0 6 -6 -2 -15 -6 -8 -9 -19 -5 -25 4 -6 1 -9 -6 -8 -7 2 -13 -2
-14 -9 0 -15 -14 -28 -28 -28 -7 0 -12 -5 -12 -12 0 -6 -15 -27 -33 -47 -18
-20 -29 -36 -26 -36 4 0 0 -8 -9 -18 -10 -10 -14 -22 -10 -27 5 -4 2 -5 -5 -1
-9 5 -15 1 -19 -13 -4 -17 -10 -20 -26 -15 -20 6 -20 6 -4 -10 9 -10 17 -19
17 -22 0 -11 -15 -1 -43 29 -25 27 -28 28 -17 7 7 -14 20 -30 29 -37 15 -11
14 -12 -1 -13 -9 0 -20 5 -23 10 -8 13 -35 13 -35 0 0 -5 6 -7 13 -4 8 3 13
-3 13 -16 0 -18 -9 -25 -29 -21 -5 1 -6 -3 -2 -8 3 -6 12 -8 19 -5 8 3 17 1
20 -4 3 -6 -1 -12 -9 -16 -8 -3 -12 -12 -9 -21 4 -10 -2 -18 -17 -24 -13 -5
-18 -10 -10 -10 11 -1 11 -5 -2 -19 -10 -10 -14 -22 -10 -25 3 -4 -1 -7 -10
-7 -10 0 -14 -5 -11 -14 7 -19 -33 -59 -53 -52 -8 3 -19 6 -24 6 -6 0 -8 4 -5
8 2 4 1 14 -4 22 -7 11 -9 9 -7 -9 1 -14 9 -26 19 -29 10 -2 18 -8 18 -13 0
-14 -26 -10 -40 6 -7 8 -18 15 -24 14 -7 0 -6 -2 2 -6 6 -2 9 -10 5 -16 -3 -7
-3 -9 2 -5 4 4 14 3 21 -3 8 -6 20 -9 29 -6 8 4 17 2 20 -3 4 -6 1 -10 -5 -10
-6 0 -8 -4 -5 -10 9 -14 -8 -13 -23 2 -7 7 -12 8 -12 4 0 -5 8 -15 18 -22 16
-12 16 -14 -1 -43 -10 -17 -15 -36 -12 -41 3 -6 -1 -10 -10 -10 -10 0 -13 5
-9 13 6 9 3 8 -9 -1 -14 -12 -16 -11 -14 7 1 12 7 19 13 17 7 -3 18 2 24 10 9
10 9 14 1 14 -6 0 -11 5 -11 11 0 8 5 8 15 -1 10 -9 15 -9 15 -1 0 10 -14 15
-34 12 -4 -1 -14 4 -22 10 -8 6 -14 7 -14 3 0 -5 9 -15 20 -22 11 -7 20 -17
20 -23 0 -8 -5 -7 -15 1 -15 12 -21 4 -16 -23 1 -5 -8 -6 -19 -2 -18 6 -17 3
6 -20 l27 -27 -23 -13 c-13 -7 -31 -11 -39 -8 -14 4 -14 4 -1 -6 8 -6 11 -11
5 -12 -5 -1 -14 -2 -20 -3 -13 -1 -15 -17 -5 -35 9 -17 33 -4 26 14 -3 9 5 12
27 11 34 -2 47 -20 21 -30 -15 -6 -15 -4 -3 10 9 11 1 9 -22 -7 -32 -20 -35
-25 -21 -35 14 -10 13 -13 -5 -22 -11 -6 -23 -8 -27 -5 -3 3 -6 1 -6 -5 0 -12
15 -17 35 -12 6 1 16 3 23 3 6 0 12 5 12 10 0 5 -8 6 -18 3 -14 -5 -14 -4 2 9
11 8 15 15 10 15 -6 0 -11 7 -11 15 0 8 4 15 9 15 4 0 8 -7 8 -15 0 -8 6 -15
13 -15 7 0 8 -3 2 -8 -6 -4 -10 -31 -10 -59 0 -48 -13 -72 -29 -56 -11 11 -6
24 6 17 7 -4 8 -3 4 4 -4 7 -1 12 6 12 10 0 10 2 0 9 -8 4 -13 11 -13 15 2 16
-1 15 -26 -1 -26 -17 -27 -17 -20 0 3 9 2 17 -3 17 -6 0 -10 -8 -10 -18 0 -26
-11 -34 -27 -21 -9 9 -13 8 -13 0 0 -6 5 -11 11 -11 5 0 7 -4 4 -10 -3 -5 -2
-10 3 -10 6 0 12 7 16 15 3 8 10 15 16 15 7 0 8 -6 0 -19 -5 -11 -7 -28 -3
-38 6 -16 5 -16 -10 -4 -20 16 -26 12 -32 -17 -3 -16 0 -19 12 -15 11 4 14 2
9 -5 -4 -7 -3 -12 3 -12 5 0 12 8 15 18 6 17 36 27 36 12 0 -3 7 -15 16 -26
15 -18 15 -18 4 3 -9 19 -8 22 7 17 10 -2 8 1 -5 7 -12 7 -22 16 -22 22 0 5 7
4 16 -3 8 -8 14 -9 12 -4 -2 5 1 10 7 12 5 1 9 -9 10 -22 0 -13 9 -34 20 -46
11 -12 19 -25 18 -29 -5 -13 9 -40 20 -38 6 1 12 -5 12 -13 0 -8 6 -14 12 -13
5 1 10 -10 9 -24 -1 -15 5 -28 13 -31 8 -3 11 0 7 6 -3 6 -2 13 3 17 6 3 8 -4
6 -16 -3 -14 0 -19 9 -16 8 3 23 -3 35 -14 12 -11 21 -16 21 -12 0 4 5 0 11
-11 9 -15 13 -16 21 -5 6 10 7 6 3 -11 -5 -23 -5 -23 8 -7 8 9 18 17 22 17 4
0 2 -7 -5 -15 -12 -15 0 -22 14 -8 9 9 36 13 35 5 -1 -4 -1 -14 0 -22 1 -13 2
-13 11 0 7 10 10 11 11 3 3 -28 4 -32 12 -39 4 -4 7 -2 7 5 0 7 5 9 10 6 6 -3
10 1 10 9 0 9 -3 15 -7 13 -7 -2 -13 6 -13 18 0 3 11 -2 25 -11 14 -9 31 -14
40 -11 8 4 17 2 21 -4 4 -6 12 -5 22 3 15 12 16 11 3 -4 -15 -20 -2 -25 17 -6
9 9 12 9 12 -2 0 -13 2 -13 10 0 5 8 10 10 10 5 0 -6 -5 -16 -12 -23 -9 -9 -9
-12 0 -12 7 0 15 7 18 15 4 8 10 15 16 15 5 0 6 -4 3 -10 -7 -11 8 -14 19 -3
4 4 28 8 54 8 26 0 53 5 61 9 9 6 12 5 8 -1 -4 -6 0 -14 9 -17 10 -4 13 -2 8
6 -4 6 -3 8 3 5 6 -4 24 0 39 8 26 14 30 13 43 -3 13 -16 13 -16 7 1 -4 14 0
20 14 24 11 3 20 10 20 16 0 6 3 8 6 4 8 -8 44 25 44 40 0 7 5 13 11 13 5 0 8
4 5 9 -3 5 1 11 9 15 9 3 12 12 8 22 -4 12 -3 15 5 10 11 -6 17 5 13 26 0 5 5
8 13 8 10 0 12 7 8 23 -5 19 -3 20 10 9 13 -10 18 -10 24 -1 4 7 3 9 -3 6 -6
-4 -13 0 -17 8 -3 8 -1 15 4 15 5 0 7 7 4 15 -5 12 -2 14 12 8 16 -6 17 -5 6
9 -9 11 -10 18 -2 23 6 3 8 10 5 15 -7 11 8 20 42 26 22 4 24 3 14 -9 -6 -8
-22 -13 -34 -11 l-22 5 23 -10 c12 -6 22 -16 22 -22 0 -16 11 -5 14 13 3 20
16 38 28 38 6 0 5 -6 -3 -16 -8 -10 -9 -18 -2 -22 5 -4 9 -15 7 -25 -1 -9 2
-15 7 -11 5 3 7 9 4 14 -9 15 15 22 30 10 8 -7 15 -9 16 -4 1 5 5 -2 9 -16 7
-22 8 -23 9 -4 1 11 -8 29 -19 39 -23 21 -28 44 -5 25 12 -10 18 -10 30 0 18
15 20 -1 3 -18 -9 -9 -9 -12 0 -12 7 0 12 5 12 10 0 6 6 5 14 -2 8 -7 12 -17
9 -21 -3 -5 4 -4 16 3 16 8 20 17 16 31 -8 24 14 22 33 -3 7 -10 19 -18 25
-18 9 0 9 2 0 8 -9 6 -6 11 8 20 19 12 20 11 14 -7 -5 -15 -2 -21 9 -21 9 0
16 5 16 11 0 5 -4 7 -10 4 -6 -3 -7 1 -4 10 10 24 43 39 59 25 11 -9 14 -7 12
9 -1 15 -6 20 -17 15 -8 -4 -22 -7 -30 -8 -9 -1 -20 -4 -25 -7 -18 -10 -40 -3
-37 11 3 11 0 11 -15 -1 -17 -13 -17 -13 -3 5 12 16 12 18 1 11 -9 -5 -12 -4
-8 2 3 5 0 10 -8 10 -8 0 -11 -5 -8 -10 3 -6 1 -7 -5 -3 -6 3 -14 1 -17 -5 -4
-5 -14 -8 -22 -5 -8 3 -12 2 -8 -3 6 -11 -14 -9 -34 3 -11 7 -12 6 -6 -5 7
-11 5 -11 -10 1 -17 13 -18 13 -10 0 6 -12 5 -13 -5 -3 -11 10 -18 9 -34 -5
-14 -13 -18 -13 -12 -2 4 8 0 6 -8 -4 -15 -19 -22 -12 -17 16 0 5 -4 8 -10 8
-6 0 -8 -7 -5 -16 4 -10 2 -13 -6 -8 -6 4 -8 3 -5 -2 3 -6 -4 -11 -16 -11 -12
-1 -17 1 -12 5 10 7 17 27 18 49 0 7 5 11 11 10 5 -1 10 7 11 18 0 13 7 20 19
20 11 0 21 5 23 11 2 7 -6 10 -24 6 -15 -2 -25 -2 -22 2 14 15 49 14 58 -2 5
-9 8 -20 8 -24 -1 -3 1 -10 6 -14 7 -7 11 9 8 34 -1 6 3 12 9 12 5 0 9 -5 7
-11 -1 -6 4 -14 12 -17 10 -3 11 0 5 9 -7 12 -5 12 9 0 14 -11 20 -11 34 0 14
12 15 12 9 0 -7 -10 -3 -12 15 -6 18 5 20 4 9 -4 -8 -5 -11 -14 -6 -18 4 -4
14 1 22 11 8 11 14 15 14 9 0 -7 -5 -15 -10 -18 -6 -4 -7 -11 -4 -17 4 -7 10
-5 16 5 5 10 15 14 25 10 12 -5 14 -3 9 8 -4 8 1 4 12 -8 15 -17 22 -19 32
-10 10 9 14 9 17 0 3 -7 9 -13 14 -13 6 0 8 3 6 8 -3 4 7 8 21 8 15 1 21 -1
15 -3 -7 -3 -13 -12 -12 -21 0 -11 3 -12 6 -5 3 10 8 9 20 -2 8 -8 19 -15 26
-15 6 0 3 6 -7 13 -16 12 -16 14 -2 14 14 0 20 -10 17 -29 -1 -12 38 -4 43 9
3 7 -1 10 -8 7 -7 -3 -16 2 -20 12 -5 14 -4 15 9 4 8 -7 15 -9 15 -5 0 4 6 3
13 -2 6 -6 28 -9 48 -9 24 1 35 -2 32 -10 -5 -14 29 -13 39 1 5 6 8 5 8 -4 0
-10 3 -11 14 -2 11 10 17 7 30 -11 12 -17 16 -19 16 -6 0 9 5 20 12 24 6 4 8
3 4 -4 -4 -6 1 -10 11 -10 10 0 27 -3 37 -7 14 -6 17 -5 11 4 -6 10 -3 11 12
2 11 -6 23 -7 27 -4 3 3 6 1 6 -7 0 -10 3 -10 16 1 13 10 17 10 25 -2 7 -12 9
-12 9 1 0 13 1 13 10 0 9 -13 10 -13 10 0 0 13 1 13 10 0 9 -13 10 -13 10 0 0
12 2 12 9 1 6 -9 10 -10 16 -2 5 9 10 9 21 0 11 -9 14 -8 14 2 0 11 2 11 10
-1 9 -13 10 -13 10 0 0 12 2 12 9 2 11 -17 21 -17 32 0 7 10 9 10 9 -2 0 -13
1 -13 10 0 8 12 10 12 10 1 0 -9 4 -10 13 -4 15 13 47 13 47 0 0 -5 6 -4 14 2
11 9 16 9 21 0 6 -8 10 -7 16 2 7 11 9 11 9 -1 0 -13 1 -13 10 0 9 13 10 13
10 0 0 -13 1 -13 10 0 9 13 10 13 10 0 0 -13 1 -13 10 0 7 11 10 11 10 2 0 -8
5 -10 13 -5 6 4 32 8 57 8 25 0 51 4 59 9 9 6 12 5 8 -1 -4 -6 0 -14 9 -17 8
-3 12 -11 8 -17 -5 -8 -9 -8 -14 1 -5 9 -9 9 -14 1 -4 -6 -2 -11 4 -11 6 0 8
-5 5 -11 -5 -6 -12 -4 -22 8 -8 10 -11 12 -7 4 5 -10 3 -12 -7 -5 -21 13 -59
13 -52 0 5 -8 3 -8 -8 0 -20 14 -42 12 -46 -6 -4 -12 -3 -12 5 -1 7 9 12 10
16 2 6 -10 0 -13 -20 -10 -4 0 -10 -5 -14 -11 -5 -8 -9 -7 -13 5 -4 9 -3 13 3
10 6 -3 10 -2 10 4 0 19 -19 21 -29 4 -6 -11 -11 -13 -11 -5 0 7 -4 11 -9 7
-5 -3 -12 -1 -16 5 -4 6 -11 8 -16 4 -5 -3 -7 -10 -4 -15 4 -5 1 -9 -4 -9 -6
0 -11 5 -11 10 0 6 0 13 -1 18 -1 10 -29 25 -36 18 -4 -3 -1 -6 6 -6 7 0 10
-4 7 -9 -3 -5 1 -14 9 -21 8 -7 12 -16 9 -21 -3 -5 1 -6 9 -3 8 3 20 -2 27
-11 15 -18 0 -21 -18 -3 -9 9 -12 9 -12 -2 0 -9 -5 -8 -16 6 -8 10 -12 12 -8
4 7 -13 5 -13 -8 -2 -11 9 -18 10 -23 2 -3 -5 -12 -10 -18 -10 -7 1 -3 8 8 18
25 21 31 51 11 48 -19 -3 -33 -16 -18 -16 7 0 12 -5 12 -11 0 -8 -4 -9 -13 0
-8 6 -18 7 -22 3 -5 -4 -5 -1 -1 5 5 9 2 11 -9 7 -14 -6 -14 -8 2 -21 16 -13
16 -13 -4 -3 -13 6 -20 16 -17 24 4 9 0 14 -10 12 -19 -3 -34 -16 -18 -16 7 0
12 -5 12 -11 0 -8 -4 -8 -14 0 -10 9 -16 9 -21 1 -4 -6 -12 -7 -18 -2 -15 11
-26 9 -55 -7 -20 -10 -26 -10 -40 2 -9 9 -24 17 -32 19 -8 2 -18 7 -22 13 -4
5 -10 6 -15 2 -4 -5 -2 -12 5 -16 9 -5 5 -11 -13 -19 -20 -9 -27 -9 -31 1 -3
8 -11 14 -19 14 -8 0 -11 -5 -8 -10 3 -6 1 -7 -5 -3 -6 4 -9 14 -6 24 5 13 4
14 -4 3 -8 -11 -10 -11 -15 0 -4 10 -6 10 -6 2 -1 -7 -6 -13 -13 -13 -9 0 -9
3 0 12 7 7 12 17 12 23 0 5 -9 -1 -19 -15 -11 -13 -17 -28 -15 -32 3 -4 -1 -5
-9 -2 -13 4 -28 -14 -26 -32 0 -4 -11 -14 -26 -24 -22 -14 -24 -18 -10 -24 15
-5 55 8 55 20 0 2 -9 0 -21 -6 -30 -17 -34 -6 -5 14 23 15 26 15 34 -1 9 -14
10 -14 16 5 4 12 12 22 17 22 12 0 12 -17 -1 -25 -5 -3 -10 -12 -10 -18 0 -7
4 -6 10 3 11 18 63 22 56 5 -2 -7 0 -18 6 -26 8 -11 9 -11 4 3 -3 10 -1 20 4
23 6 4 10 0 10 -8 0 -8 12 -22 28 -31 l27 -17 -22 19 c-24 21 -40 76 -21 70 6
-2 12 -12 14 -22 1 -10 5 -21 9 -24 8 -9 25 20 18 31 -3 5 0 7 8 5 8 -3 13
-13 11 -22 -2 -9 2 -24 7 -34 8 -14 10 -12 8 12 -1 18 4 31 13 34 12 4 13 3 3
-10 -7 -8 -10 -18 -6 -21 13 -13 41 -7 48 10 6 16 8 14 21 -9 10 -19 20 -26
36 -23 12 3 25 10 28 16 10 16 13 16 43 -3 25 -17 27 -17 35 0 5 9 7 23 5 30
-3 6 0 12 5 12 11 0 28 -38 24 -53 -1 -5 2 -6 8 -2 7 4 7 12 0 25 -13 25 -13
26 11 27 18 2 19 0 7 -15 -11 -15 -10 -15 8 0 31 27 41 22 14 -7 -13 -14 -22
-25 -19 -26 2 0 12 -2 22 -4 13 -3 15 0 8 9 -7 9 -7 16 1 24 17 17 33 15 18
-3 -9 -10 -9 -15 -1 -15 6 0 11 5 11 10 0 6 7 10 16 10 8 0 12 -5 9 -10 -3 -6
-1 -10 5 -10 7 0 9 8 5 21 -6 19 -5 20 15 9 18 -10 20 -14 9 -21 -9 -6 -10 -9
-2 -9 16 0 28 21 17 29 -15 10 -14 29 2 35 8 3 13 2 10 -3 -3 -5 1 -24 9 -42
l14 -34 -4 47 c-3 44 -2 47 15 36 10 -7 16 -17 12 -23 -4 -5 -7 -23 -8 -39 -2
-24 0 -26 8 -13 5 10 7 21 4 25 -3 5 4 21 15 38 10 16 19 25 20 19 1 -5 2 -14
4 -20 1 -5 3 -16 3 -24 2 -11 5 -11 17 -1 9 7 14 19 11 26 -3 7 -1 16 4 19 10
6 14 -7 11 -31 -1 -6 6 -18 16 -25 15 -13 15 -12 5 7 -11 21 -7 34 9 34 5 0 7
-6 5 -12 -1 -7 -1 -10 1 -6 3 4 15 1 28 -8 22 -14 24 -14 37 8 7 13 13 29 13
37 0 8 5 16 12 18 8 3 10 -6 8 -26 -5 -35 1 -37 30 -14 18 14 18 15 2 9 -12
-4 -17 -2 -15 5 2 7 18 13 35 14 25 2 30 -1 26 -14 -3 -9 2 -6 11 7 27 35 40
26 15 -10 -13 -17 -18 -29 -12 -25 6 4 13 4 16 0 2 -5 3 -3 1 3 -1 7 6 21 17
33 12 12 15 21 8 21 -16 0 -2 13 17 16 10 2 13 -3 10 -14 -3 -9 -2 -23 3 -30
6 -10 13 -8 34 8 14 11 28 16 31 11 3 -5 -1 -11 -9 -15 -8 -3 -15 -11 -14 -18
0 -10 2 -10 6 0 6 15 23 6 19 -11 -1 -7 -1 -9 1 -4 3 4 10 4 15 1 7 -4 8 -2 4
4 -4 7 -3 12 3 12 5 0 13 9 16 20 4 11 11 18 16 15 5 -3 2 -17 -7 -31 -9 -13
-12 -24 -6 -24 5 0 12 8 15 19 3 13 13 18 35 17 17 -1 34 -5 38 -9 7 -7 -9
-11 -33 -8 -15 2 -16 -8 -4 -27 7 -11 9 -10 14 3 5 12 11 14 26 6 10 -6 21 -7
25 -4 3 3 6 1 6 -6 0 -6 -7 -14 -15 -17 -8 -4 -15 -11 -15 -17 0 -5 9 -2 20 8
20 18 29 8 11 -10 -6 -6 -3 -15 6 -24 13 -12 14 -11 9 6 -4 12 -1 25 8 33 13
10 15 7 11 -22 -4 -29 1 -40 31 -69 19 -19 33 -27 29 -18 -4 10 -1 16 8 16 8
0 14 -11 14 -29 0 -22 -3 -25 -14 -16 -19 15 -33 -2 -22 -27 9 -18 9 -18 5 3
-3 15 0 22 7 19 7 -3 11 -11 9 -18 -2 -9 3 -7 17 5 19 17 20 17 35 -13 10 -19
12 -32 6 -36 -6 -3 -10 -12 -10 -18 0 -7 7 -4 15 6 7 11 11 26 7 35 -5 15 -4
15 11 3 16 -12 15 -15 -5 -44 -12 -17 -16 -27 -8 -22 10 6 12 4 6 -11 -4 -10
-4 -15 0 -11 4 4 14 1 23 -6 13 -10 14 -10 5 3 -15 22 -15 57 1 70 12 10 14 6
10 -24 -4 -33 14 -64 23 -38 2 6 10 8 18 5 8 -3 14 1 14 8 0 16 13 3 16 -17 2
-11 -4 -13 -19 -9 -15 4 -18 3 -9 -3 11 -7 8 -11 -9 -15 -13 -4 -20 -9 -17
-12 3 -4 16 -2 27 5 15 8 27 8 42 0 19 -11 20 -12 3 -24 -18 -13 -12 -36 9
-36 7 0 6 4 -3 10 -13 9 -13 12 2 20 10 6 15 18 12 28 -5 14 -3 13 12 -3 13
-15 15 -16 11 -3 -3 9 1 22 9 29 13 10 14 8 9 -19 -6 -34 4 -46 25 -30 12 8
12 9 -2 4 -18 -5 -25 8 -10 18 12 7 29 -7 46 -39 9 -17 16 -23 16 -15 -1 8 -7
24 -15 34 -19 25 -19 35 0 32 19 -3 32 -16 16 -16 -9 0 -8 -6 3 -22 11 -15 12
-27 5 -42 -10 -20 -10 -20 5 -2 19 23 20 32 6 41 -5 3 -10 12 -10 18 1 7 9 2
20 -11 11 -13 21 -18 25 -12 3 5 1 10 -6 10 -16 0 -3 13 17 16 8 1 13 -3 11
-9 -3 -11 32 -52 39 -44 2 2 -2 10 -11 17 -17 14 -20 50 -4 50 6 0 9 -6 6 -14
-8 -19 28 -52 39 -35 4 7 3 10 -2 7 -5 -3 -15 0 -21 8 -7 7 -9 15 -4 19 5 3
12 1 16 -5 4 -6 12 -7 24 -1 18 10 44 0 41 -15 0 -5 6 -10 15 -10 14 -2 14 -2
0 3 -12 3 -13 8 -6 17 11 13 8 15 -49 18 -16 1 -31 7 -34 13 -5 13 42 14 63 1
15 -10 32 10 25 29 -3 6 2 12 11 12 9 0 14 -5 12 -12 -3 -6 2 -20 9 -30 11
-14 19 -17 30 -10 9 6 16 15 17 20 1 15 21 34 30 28 4 -2 5 -8 2 -13 -3 -5 0
-12 6 -16 7 -4 9 -3 6 3 -4 6 0 14 9 17 12 5 14 1 9 -17 -5 -17 -4 -19 4 -7 9
13 15 8 13 -11 -1 -3 6 -6 13 -6 10 0 12 4 5 12 -5 7 -8 15 -5 18 3 4 2 5 -2
2 -3 -3 -17 10 -30 27 -12 18 -23 27 -23 22 0 -6 5 -15 12 -22 9 -9 9 -12 1
-12 -7 0 -19 10 -29 23 -11 15 -15 16 -11 5 4 -10 2 -18 -4 -18 -6 0 -9 8 -7
18 4 23 79 25 86 2 5 -13 3 -13 -14 0 -18 14 -18 14 -5 -3 8 -9 16 -15 19 -12
3 2 11 -3 19 -13 12 -15 13 -14 2 8 -6 14 -18 33 -27 43 -8 9 -11 17 -6 18 12
1 37 6 49 10 6 2 10 -1 10 -6 0 -6 -4 -9 -8 -7 -5 1 -6 -2 -2 -8 9 -14 -8 -13
-25 2 -12 11 -12 10 0 -7 8 -11 15 -21 16 -23 7 -12 41 43 38 61 -2 12 -2 16
2 10 7 -16 34 -17 34 -2 0 5 -4 7 -10 4 -5 -3 -10 -4 -10 -1 0 3 10 10 21 17
15 8 19 8 15 0 -4 -6 -2 -11 3 -11 6 0 11 6 11 13 0 8 7 14 15 14 8 0 15 -5
15 -10 0 -6 3 -7 6 -4 4 4 2 13 -5 21 -9 11 -8 15 4 20 11 4 14 2 10 -7 -4 -6
1 -3 10 8 9 11 21 19 26 18 5 -2 9 5 9 15 0 9 4 13 8 7 4 -5 13 -11 21 -13 12
-3 12 0 1 12 -10 13 -10 16 1 17 8 1 18 1 23 0 5 -1 3 6 -5 15 -13 16 -12 16
11 4 21 -11 23 -11 13 1 -9 11 -7 19 7 36 9 12 20 19 24 16 3 -4 6 0 6 9 0 8
14 25 30 38 17 13 28 25 25 28 -2 3 3 11 13 19 11 10 12 12 2 8 -8 -4 -7 0 4
9 12 10 17 22 13 38 -4 12 -2 27 3 33 14 17 14 115 0 115 -4 0 -6 14 -4 30 2
17 -1 30 -7 30 -6 0 -9 6 -6 14 3 7 -1 26 -9 42 -8 15 -13 33 -10 40 3 7 1 14
-4 16 -5 2 -11 13 -13 25 -2 12 -6 26 -10 29 -4 4 -7 18 -7 31 0 13 -5 23 -12
23 -6 0 -9 3 -6 6 4 3 -2 24 -12 47 -18 44 -32 79 -35 87 -6 20 -41 86 -47 88
-5 2 -8 10 -8 18 0 8 -4 14 -10 14 -5 0 -10 6 -10 13 0 7 -8 20 -17 28 -10 9
-36 37 -57 63 -22 26 -64 72 -94 102 -48 48 -53 56 -41 71 11 15 11 16 -1 6
-18 -17 -30 -16 -30 1 0 7 -8 20 -17 27 -16 13 -17 12 -5 -3 12 -15 11 -16
-12 -5 -14 7 -21 14 -16 15 6 2 7 9 4 14 -4 7 -2 8 4 4 8 -4 12 0 12 11 0 14
2 15 9 4 6 -9 11 -10 15 -2 4 6 4 15 1 21 -3 6 1 7 10 4 10 -4 15 -2 13 7 -2
8 4 13 14 13 11 -1 15 5 13 18 -2 10 0 16 5 13 5 -3 11 3 15 14 3 11 13 25 23
33 16 12 16 11 2 -7 -14 -18 -14 -19 2 -7 9 8 23 10 30 6 10 -5 11 -4 1 7 -15
16 -17 33 -3 24 6 -3 10 3 10 14 0 12 3 20 8 20 19 -3 25 2 12 11 -13 8 -12
10 3 10 9 0 17 6 17 14 0 8 9 22 21 30 12 8 18 19 15 25 -4 6 2 8 14 6 11 -2
18 0 15 5 -3 5 0 20 7 32 7 13 11 26 10 31 -1 4 3 7 8 7 6 0 10 7 10 16 0 8 5
12 10 9 6 -3 10 1 10 10 0 10 5 13 13 9 7 -5 6 0 -3 11 -14 17 -13 18 2 12 10
-3 17 -3 17 1 -4 25 2 42 13 36 8 -5 9 -2 5 9 -3 9 0 20 8 24 7 5 13 12 13 16
0 17 25 66 32 62 5 -3 7 6 6 20 -2 13 1 22 5 19 5 -3 9 4 9 15 0 12 5 21 11
21 5 0 8 4 4 9 -3 5 -1 12 4 16 6 3 8 12 5 19 -3 8 0 17 7 22 8 5 10 3 4 -6
-5 -9 -4 -11 3 -6 8 5 9 13 3 24 -6 11 -5 30 2 52 7 19 11 49 11 65 -1 17 4
36 10 44 9 12 8 13 -4 6 -12 -7 -13 -6 -4 6 6 8 11 31 10 52 0 20 3 37 7 37 4
0 3 9 -3 20 -8 15 -8 20 2 20 9 0 9 3 -2 10 -11 7 -11 10 -2 10 9 0 10 5 3 18
-6 10 -6 24 -1 32 5 8 6 19 3 24 -10 16 -10 56 0 56 5 0 4 6 -2 13 -6 8 -8 17
-4 20 3 4 1 7 -7 7 -10 0 -10 3 -1 14 9 11 9 16 0 21 -8 6 -7 10 2 16 8 5 9 9
4 9 -6 0 -12 11 -13 26 -1 17 2 23 10 18 7 -5 8 -3 2 7 -9 15 -12 29 -16 67
-1 12 -5 22 -8 22 -3 0 -6 15 -6 33 -2 38 -10 72 -21 90 -4 6 -8 21 -8 32 -2
21 -11 49 -26 77 -5 10 -9 27 -9 38 0 12 -4 18 -10 15 -6 -3 -10 0 -10 9 0 8
5 16 12 18 6 2 11 21 10 41 -1 23 3 37 11 37 8 0 6 4 -3 10 -13 8 -13 13 -2
30 7 11 10 25 7 30 -4 6 -1 10 5 10 6 0 8 5 5 11 -9 13 -12 159 -4 159 4 0 3
15 -1 34 -5 22 -3 39 3 45 7 7 7 11 1 11 -5 0 -8 18 -6 41 3 28 0 44 -9 50
-12 7 -12 9 0 9 11 0 11 3 0 17 -12 14 -12 16 0 8 11 -6 12 -5 5 6 -5 8 -10
41 -10 74 -3 94 -7 145 -13 145 -4 0 -7 20 -8 45 0 25 -6 51 -11 58 -6 7 -12
21 -14 32 -1 11 -7 23 -13 27 -6 5 -5 8 4 8 19 0 -4 27 -41 46 -29 15 -186 23
-206 10 -7 -4 -12 -2 -12 4 0 7 -6 8 -17 2 -10 -5 -24 -7 -30 -5 -7 3 -13 1
-13 -4 0 -5 -19 -9 -42 -8 -24 0 -49 -5 -56 -12 -17 -17 -35 -17 -26 0 6 8 3
8 -9 -1 -9 -8 -22 -10 -28 -6 -7 4 -9 3 -6 -3 4 -6 0 -13 -7 -16 -8 -3 -17 -1
-20 6 -3 9 -5 8 -5 -1 -1 -7 -6 -10 -11 -7 -6 3 -10 2 -10 -2 0 -5 -11 -10
-26 -11 -14 -1 -34 -6 -44 -12 -13 -7 -21 -7 -25 0 -4 6 -12 4 -21 -5 -9 -8
-20 -13 -25 -10 -5 4 -9 1 -9 -5 0 -7 -6 -10 -14 -7 -8 3 -16 2 -18 -4 -3 -9
-37 -20 -70 -22 -9 -1 -15 -4 -12 -8 5 -8 -36 -24 -50 -20 -5 1 -12 -2 -15 -6
-11 -14 -81 -43 -81 -33 0 6 -9 10 -20 10 -11 0 -20 5 -20 10 0 6 -3 9 -7 8
-5 -1 -30 3 -58 10 -27 7 -60 14 -73 17 -12 2 -28 7 -35 12 -6 4 -20 6 -30 5
-10 -2 -24 2 -32 8 -7 6 -19 10 -27 9 -28 -3 -49 1 -43 11 4 6 -2 7 -18 1 -13
-5 -30 -6 -37 -1 -7 4 -23 7 -36 5 -13 -1 -24 2 -24 8 0 5 -9 7 -20 4 -11 -3
-20 -1 -20 4 0 5 -10 5 -23 0 -14 -5 -30 -5 -40 0 -11 7 -17 6 -17 -1 0 -6 -5
-8 -10 -5 -31 19 -280 28 -280 10 0 -5 -4 -4 -9 4 -5 7 -11 9 -14 4 -3 -4 -54
-10 -114 -11 -59 -2 -110 -8 -111 -13 -3 -6 -9 -5 -18 2 -8 6 -14 8 -14 3 0
-5 -21 -10 -48 -11 -56 -3 -73 -6 -89 -16 -8 -5 -13 -3 -13 4 0 7 -9 5 -26 -6
-15 -9 -23 -12 -20 -6 4 6 2 11 -3 11 -6 0 -11 -4 -11 -10 0 -5 -13 -10 -28
-10 -15 0 -34 -6 -41 -12 -11 -11 -12 -10 -6 2 7 12 6 13 -6 4 -8 -5 -24 -9
-36 -8 -13 0 -23 -3 -23 -8 0 -6 -7 -8 -15 -5 -8 4 -17 2 -20 -3 -4 -6 -11
-10 -16 -10 -6 0 -7 6 -3 13 6 9 5 9 -7 0 -8 -6 -23 -13 -34 -15 -11 -1 -23
-7 -26 -12 -4 -5 -19 -8 -34 -8 -14 0 -29 -7 -32 -15 -5 -12 -7 -12 -14 -1 -7
10 -9 11 -9 0 0 -7 -5 -10 -11 -7 -6 4 -8 13 -6 20 4 8 -3 11 -17 10 -13 -2
-29 5 -37 16 -7 10 -17 19 -22 19 -4 0 -17 9 -29 20 -12 11 -28 20 -35 20 -7
0 -13 5 -13 10 0 6 -6 10 -14 10 -7 0 -19 7 -26 15 -7 9 -29 23 -49 32 -20 9
-39 22 -43 27 -4 6 -8 7 -8 2 0 -5 -6 -4 -12 2 -7 5 -49 24 -93 42 -44 17 -88
36 -99 41 -11 7 -16 7 -12 1 3 -6 -5 -5 -19 1 -14 7 -25 15 -25 19 0 3 -8 4
-19 1 -10 -3 -22 0 -25 6 -4 6 -20 11 -36 11 -16 0 -32 5 -35 10 -4 6 -11 8
-16 5 -5 -4 -9 -1 -9 5 0 7 -8 9 -20 5 -12 -4 -20 -2 -20 5 0 7 -7 10 -15 7
-8 -4 -17 -2 -20 3 -3 5 -13 9 -23 9 -17 0 -57 8 -57 12 0 1 -11 3 -23 4 -14
1 -34 -8 -48 -22z m-194 -427 c-7 -7 -14 -6 -21 1 -9 9 -7 12 9 10 14 -1 18
-5 12 -11z m2 -31 c0 -5 -5 -11 -10 -13 -5 -1 -9 4 -9 13 0 9 4 14 9 13 5 -2
10 -8 10 -13z m32 -42 c3 -7 1 -15 -5 -19 -6 -4 -6 -11 2 -20 10 -12 9 -13 -6
-8 -15 6 -16 4 -6 -14 8 -15 8 -22 1 -22 -5 0 -10 -5 -10 -11 0 -5 4 -7 10 -4
5 3 7 0 4 -9 -3 -8 -14 -14 -24 -13 -14 1 -16 4 -9 14 6 7 7 18 3 24 -4 7 -3
9 3 6 6 -4 9 5 8 21 -1 15 6 33 14 40 13 11 13 12 1 6 -35 -17 -41 -26 -28
-42 11 -13 10 -15 -5 -9 -14 5 -16 3 -8 -12 7 -13 6 -24 -5 -39 -8 -12 -10
-23 -5 -27 5 -3 12 -1 16 4 3 6 13 7 21 4 13 -5 13 -8 2 -15 -10 -7 -10 -11
-1 -15 10 -3 9 -8 -2 -20 -12 -11 -13 -19 -5 -28 7 -9 7 -15 1 -19 -5 -4 -12
-2 -16 3 -9 16 -44 9 -37 -8 3 -8 1 -12 -5 -8 -6 4 -9 -7 -7 -29 2 -33 0 -35
-14 -21 -12 12 -13 19 -4 30 7 8 9 17 5 21 -4 3 6 19 20 34 15 16 24 32 20 37
-5 4 2 6 14 3 15 -4 20 -2 17 7 -3 7 -13 12 -22 11 -11 -1 -16 8 -18 32 -1 18
2 35 7 37 4 3 6 12 3 19 -3 7 2 19 10 26 9 7 13 16 10 21 -3 5 0 9 6 9 6 0 9
4 6 8 -2 4 4 8 14 8 11 0 22 -6 24 -13z m-54 -232 c0 -5 -6 -12 -12 -15 -7 -3
-4 -4 8 -1 19 5 21 1 20 -34 -1 -30 -4 -37 -13 -29 -9 7 -13 7 -13 0 0 -6 4
-13 10 -17 5 -3 6 -15 1 -28 -4 -12 -6 -28 -4 -34 6 -16 -13 -17 -23 -1 -5 7
-3 8 5 3 10 -6 11 -3 2 12 -5 11 -8 33 -5 49 5 27 4 28 -9 10 -8 -11 -12 -27
-10 -37 3 -9 0 -20 -6 -23 -17 -11 -13 -29 5 -22 9 3 12 2 9 -5 -4 -6 -14 -8
-24 -5 -14 5 -13 4 2 -8 19 -15 23 -31 5 -20 -10 6 -10 5 -1 -8 7 -8 9 -19 5
-23 -4 -5 -1 -5 6 -1 7 4 9 12 6 18 -4 6 -2 8 3 5 6 -4 10 1 9 10 0 9 5 18 12
20 6 3 12 0 12 -7 0 -6 -4 -8 -10 -5 -5 3 -10 1 -10 -4 0 -6 6 -11 13 -11 7
-1 5 -6 -5 -14 -10 -7 -15 -16 -11 -20 11 -10 12 -37 2 -30 -15 9 -10 -8 7
-28 16 -16 15 -18 0 -24 -14 -5 -14 -9 -4 -22 11 -12 11 -16 0 -20 -10 -3 -10
-7 0 -20 11 -13 11 -14 -1 -7 -11 6 -13 4 -6 -11 12 -31 14 -84 2 -84 -7 0 -7
-4 1 -12 14 -14 -2 -38 -27 -39 -11 0 -12 -2 -3 -6 10 -4 9 -9 -5 -19 -17 -13
-17 -14 2 -7 18 6 18 5 -3 -17 -16 -18 -19 -27 -11 -37 8 -9 8 -14 -3 -18 -8
-3 -15 -12 -16 -20 -1 -8 -3 -22 -4 -30 -1 -8 -6 -15 -11 -15 -6 0 -7 -3 -4
-6 9 -9 -12 -46 -23 -39 -4 3 -11 -1 -14 -7 -3 -7 -3 -3 0 9 4 18 1 21 -15 18
-27 -5 -26 8 3 39 22 25 43 36 32 18 -3 -5 1 -9 9 -9 23 0 18 10 -17 30 -28
16 -30 16 -17 1 12 -15 12 -17 -1 -12 -22 7 -18 33 5 33 11 0 26 -6 33 -15 10
-13 11 -12 6 5 -4 13 -3 16 3 8 6 -8 14 -9 23 -3 13 8 12 10 -3 10 -11 0 -15
4 -11 12 5 7 3 8 -7 2 -15 -9 -39 -15 -39 -9 0 2 3 11 6 20 5 13 9 14 15 4 6
-10 11 -10 23 0 19 16 21 32 4 29 -7 -2 -12 3 -10 10 1 6 -4 12 -10 12 -7 0
-5 5 5 11 12 7 15 15 9 22 -12 16 -11 47 1 47 6 0 2 9 -7 19 -16 18 -16 20 6
35 15 11 17 16 8 16 -11 1 -10 3 3 11 18 10 18 12 1 30 -9 10 -12 19 -7 19 6
0 17 -10 26 -22 12 -19 17 -21 29 -10 11 11 10 12 -4 7 -20 -8 -25 10 -6 21 7
5 8 3 3 -6 -5 -9 -4 -11 4 -6 6 4 9 12 5 17 -3 5 -10 6 -16 3 -6 -4 -6 1 1 14
7 14 8 23 1 27 -5 3 -10 -3 -10 -14 0 -11 -5 -23 -12 -27 -6 -4 -8 -3 -5 4 5
6 -1 8 -15 5 -14 -4 -20 -2 -15 3 5 5 14 9 20 9 7 0 12 7 12 15 0 8 3 20 6 25
5 8 5 49 0 78 0 5 -6 5 -13 1 -7 -5 -8 -3 -3 6 8 14 16 56 17 98 0 15 5 22 16
20 12 -2 17 5 18 22 1 14 4 33 9 43 8 18 25 24 25 8z m-130 -406 c-7 -9 -15
-13 -17 -11 -7 7 7 26 19 26 6 0 6 -6 -2 -15z m-34 -392 c-7 -7 -26 7 -26 19
0 6 6 6 15 -2 9 -7 13 -15 11 -17z m-12 -187 c-3 -7 -16 -18 -29 -24 -21 -10
-23 -9 -18 6 6 14 5 15 -9 2 -22 -20 -6 -35 22 -20 16 9 25 9 33 1 8 -8 8 -11
-2 -11 -7 0 -9 -4 -6 -10 3 -5 1 -10 -5 -10 -14 0 -10 -111 5 -123 6 -5 3 -7
-7 -3 -10 3 -20 1 -23 -4 -4 -6 1 -10 10 -10 9 0 14 -4 11 -9 -4 -5 -3 -11 1
-14 5 -2 3 -2 -4 -1 -7 2 -15 -1 -18 -6 -4 -6 1 -10 9 -10 9 0 16 -2 16 -4 0
-2 3 -13 6 -23 6 -16 5 -16 -9 2 -16 20 -16 19 -11 -5 3 -14 6 -31 6 -37 1 -7
5 -13 10 -13 4 0 8 -7 8 -15 0 -18 -42 -15 -48 3 -2 8 -8 7 -19 -3 -8 -8 -19
-13 -24 -10 -5 4 -9 1 -9 -5 0 -6 -5 -8 -10 -5 -8 5 -7 11 1 21 8 10 14 11 19
4 5 -7 11 -6 19 4 8 10 9 16 1 21 -6 3 -8 11 -5 16 4 5 1 10 -4 10 -6 1 -16 2
-23 3 -6 0 -13 7 -16 15 -3 9 0 11 9 5 12 -6 12 -5 1 8 -10 13 -10 17 4 22 23
9 31 7 14 -4 -8 -5 -10 -10 -4 -10 19 0 24 13 11 28 -10 13 -9 15 5 9 10 -3
20 -1 24 5 4 6 3 8 -4 4 -6 -3 -19 5 -30 19 -11 14 -25 25 -32 25 -6 0 -8 5
-5 10 4 6 10 8 15 5 11 -7 22 24 13 38 -3 7 -3 9 2 5 4 -4 16 -3 27 3 17 9 17
12 3 32 -19 27 -19 32 1 52 12 11 20 13 29 5 9 -7 16 -6 25 5 15 19 21 19 14
1z m-84 -376 c0 -5 -5 -10 -12 -10 -6 0 -8 -3 -5 -6 4 -4 13 -2 20 5 11 8 17
8 24 -1 8 -11 10 -33 3 -40 -5 -6 -6 -94 -1 -103 11 -19 11 -44 0 -50 -6 -4
-9 1 -7 11 2 14 -3 19 -19 19 -13 0 -22 2 -21 5 1 3 -4 14 -10 26 -8 16 -8 24
0 32 16 16 25 15 25 -3 0 -9 -6 -14 -14 -11 -8 3 -11 2 -8 -3 3 -6 14 -9 25
-8 13 1 16 5 10 11 -6 6 -5 15 3 25 9 12 9 13 0 7 -8 -4 -13 -2 -13 4 0 6 -4
9 -9 6 -4 -3 -17 2 -27 10 -18 15 -18 15 7 10 20 -4 26 -2 26 12 0 9 -7 22
-15 28 -8 6 -12 16 -8 22 9 15 26 16 26 2z m55 -277 c-1 -16 4 -35 12 -45 8
-9 16 -25 18 -35 2 -10 4 -19 4 -20 1 -2 1 -6 2 -10 0 -5 5 -14 11 -20 6 -7 8
-13 4 -13 -4 0 0 -13 8 -28 13 -25 12 -30 -4 -51 l-17 -24 1 24 c1 13 -3 30
-8 38 -9 12 -7 13 6 8 12 -4 15 -2 11 8 -3 8 -9 12 -14 9 -5 -3 -12 2 -15 10
-3 9 -12 16 -20 16 -17 0 -17 5 -3 31 8 15 7 24 -3 37 -11 14 -10 15 7 9 19
-7 19 -6 2 7 -22 17 -28 46 -14 64 13 17 14 16 12 -15z m-38 -74 c2 -17 -1
-18 -13 -8 -13 11 -10 20 11 29 1 0 1 -9 2 -21z m124 -173 c-6 -7 -8 -16 -4
-19 3 -4 1 -7 -5 -7 -15 0 -16 17 -2 25 6 4 7 11 4 17 -4 7 -2 8 5 4 8 -6 9
-12 2 -20z m36 -13 c-4 -3 0 -18 9 -32 9 -14 13 -23 9 -18 -5 4 -16 0 -26 -9
-13 -12 -19 -12 -25 -3 -5 8 -3 10 6 4 10 -6 12 -4 7 7 -3 9 -3 19 1 23 4 4 8
11 8 16 3 16 4 19 11 19 3 0 3 -3 0 -7z m38 -119 c-3 -28 12 -43 38 -38 11 1
16 0 13 -3 -3 -4 0 -13 7 -22 10 -14 10 -14 -5 -3 -12 9 -18 10 -23 2 -5 -7
-14 0 -26 19 -11 18 -24 28 -32 25 -8 -3 -20 2 -27 11 -11 13 -10 18 5 29 27
20 54 9 50 -20z m45 -104 c0 -5 -5 -10 -11 -10 -5 0 -7 5 -4 10 3 6 8 10 11
10 2 0 4 -4 4 -10z m40 -20 c0 -4 -6 -10 -13 -13 -7 -3 -13 3 -13 13 0 10 6
16 13 13 7 -3 13 -9 13 -13z m56 -82 c0 -20 -4 -27 -13 -23 -9 3 -11 0 -7 -6
4 -7 1 -10 -7 -7 -8 3 -19 -2 -26 -11 -10 -14 -11 -12 -9 11 1 15 8 33 14 41
7 8 10 16 7 18 -2 3 6 5 19 5 18 0 22 -5 22 -28z m175 -30 c-7 -7 -12 -8 -11
-3 5 23 -1 36 -12 29 -7 -5 -8 -3 -3 5 6 10 11 9 23 -3 13 -13 14 -18 3 -28z
m39 -21 c0 -7 -4 -6 -10 3 -9 13 -14 8 -12 -11 1 -4 -8 -5 -19 -2 -19 5 -19 6
3 18 25 13 38 10 38 -8z m-173 -36 c2 -13 -2 -30 -8 -37 -12 -15 -3 -37 13
-28 5 4 2 -5 -7 -20 -20 -29 -25 -31 -45 -13 -12 10 -12 9 -1 -5 8 -11 9 -18
3 -18 -17 0 -25 21 -14 32 8 8 16 7 27 -2 8 -7 15 -8 15 -2 0 12 -29 24 -41
16 -20 -12 -19 26 1 65 11 23 17 47 13 54 -4 7 3 5 17 -4 13 -8 25 -26 27 -38z
m-17 -131 c0 -5 -7 -10 -16 -10 -8 0 -12 5 -9 10 3 6 10 10 16 10 5 0 9 -4 9
-10z m-87 -176 c-7 -20 -18 -17 -20 5 -1 13 3 18 12 15 8 -3 11 -12 8 -20z
m-123 -224 c0 -5 -5 -10 -11 -10 -5 0 -7 5 -4 10 3 6 8 10 11 10 2 0 4 -4 4
-10z m-78 -183 c-7 -8 -9 -17 -5 -20 3 -4 1 -7 -5 -7 -5 0 -17 -3 -26 -6 -10
-4 -16 -1 -16 7 0 7 3 10 6 6 11 -10 42 26 37 42 -5 13 -3 14 7 4 10 -9 10
-15 2 -26z m-77 -48 c11 -17 -1 -21 -15 -4 -8 9 -8 15 -2 15 6 0 14 -5 17 -11z
m3000 -28 c-3 -6 3 -14 12 -20 10 -6 14 -10 8 -11 -19 0 -38 18 -31 29 4 6 9
11 12 11 3 0 3 -4 -1 -9z m-34 -24 c-8 -8 -14 -7 -23 2 -11 10 -9 11 6 5 15
-6 17 -4 11 6 -6 9 -4 11 4 5 9 -5 10 -10 2 -18z m-26 -19 c15 -21 17 -22 26
-6 8 14 14 15 34 6 14 -6 25 -15 25 -20 0 -5 -4 -7 -9 -4 -5 4 -11 3 -14 -1
-2 -5 -2 -3 -1 4 4 17 -23 24 -30 7 -3 -8 -1 -14 4 -14 6 0 10 -5 10 -11 0 -8
-4 -8 -14 0 -12 10 -86 24 -86 17 0 -1 12 -13 27 -27 20 -18 25 -20 20 -6 -4
9 -2 17 3 17 14 0 12 -24 -2 -38 -9 -9 -9 -12 0 -12 7 0 17 10 23 23 l10 22
-5 -22 c-2 -12 2 -28 10 -34 12 -9 14 -8 12 10 -2 15 7 28 30 42 17 12 32 16
32 10 0 -6 -6 -11 -12 -11 -19 -1 -53 -29 -45 -37 4 -3 15 1 25 11 20 18 57
12 45 -8 -4 -6 -8 -17 -9 -23 -1 -7 -9 -20 -18 -29 -20 -20 -20 -31 -1 -31 10
0 14 6 10 16 -4 11 -1 10 14 -3 15 -14 24 -16 34 -8 10 8 16 6 26 -10 9 -14 9
-18 0 -13 -7 5 -10 3 -7 -6 3 -8 11 -14 18 -14 7 0 15 -6 18 -14 3 -10 0 -12
-12 -8 -12 5 -16 3 -13 -5 2 -7 11 -12 20 -12 9 1 16 -1 15 -5 -2 -19 4 -24
12 -11 6 9 10 10 10 3 0 -6 -4 -15 -10 -18 -5 -3 -10 -11 -10 -16 0 -6 4 -7
10 -4 5 3 18 1 27 -4 10 -6 12 -11 6 -11 -7 0 -13 -5 -13 -11 0 -5 5 -7 10 -4
6 4 10 3 9 -2 -3 -19 2 -27 10 -15 7 11 9 10 14 -3 5 -10 3 -14 -4 -9 -7 4
-10 1 -7 -7 3 -8 14 -13 26 -13 12 1 19 -2 17 -7 -7 -11 36 -40 48 -32 6 3 7
1 3 -5 -4 -7 -2 -13 3 -13 6 -1 15 -2 19 -3 4 0 24 -18 45 -38 20 -21 29 -34
20 -31 -15 6 -16 5 -3 -9 13 -14 16 -14 27 1 7 9 13 12 13 6 0 -5 5 -3 10 5 8
12 10 12 10 1 0 -10 3 -11 14 -2 10 9 15 8 19 -2 4 -10 -2 -13 -19 -11 -13 1
-24 -2 -24 -7 0 -6 -4 -8 -9 -4 -5 3 -13 0 -16 -6 -5 -7 -14 -4 -29 8 -18 16
-38 22 -48 13 -2 -1 -11 -3 -21 -5 -14 -3 -16 0 -7 10 8 9 7 14 -4 18 -8 3
-19 0 -25 -6 -5 -7 -22 -14 -37 -15 -26 -2 -27 -1 -9 12 18 13 18 14 -3 25
-13 7 -20 16 -17 22 4 5 2 9 -3 9 -6 0 -13 -7 -16 -16 -4 -9 -9 -14 -13 -11
-3 4 -12 2 -19 -4 -10 -8 -12 -3 -11 23 1 18 -2 34 -8 36 -5 2 -18 11 -27 19
-10 9 -18 13 -18 10 0 -3 -11 5 -24 18 -13 13 -23 32 -22 42 1 13 -6 18 -26
18 -37 0 -51 17 -52 62 -1 30 -5 37 -18 35 -9 -1 -19 6 -23 17 -5 18 -55 59
-55 45 0 -4 -7 -1 -15 6 -11 9 -15 10 -15 1 0 -8 -5 -7 -15 3 -15 15 -50 12
-40 -4 3 -4 -3 -14 -12 -21 -14 -12 -15 -11 -9 7 8 26 -17 40 -34 18 -14 -16
-40 -19 -40 -5 0 6 5 13 12 17 7 5 8 3 3 -6 -5 -8 -4 -11 3 -6 6 4 9 13 6 21
-4 8 -10 12 -15 9 -5 -3 -9 0 -9 5 0 15 15 14 29 -3 7 -8 23 -13 36 -11 16 1
22 -2 18 -9 -3 -6 -2 -7 3 -3 5 5 10 13 10 18 1 5 2 12 3 16 0 4 7 -2 15 -13
12 -16 17 -17 28 -6 11 11 10 12 -4 7 -11 -4 -18 -2 -18 5 0 6 5 8 11 4 8 -4
8 0 0 15 -13 24 -23 28 -15 6 4 -10 0 -13 -15 -10 -11 2 -20 -1 -18 -7 1 -6
-4 -13 -12 -16 -8 -2 -11 0 -7 6 3 6 2 13 -3 16 -5 4 -12 2 -16 -4 -4 -6 -14
-4 -29 5 -12 8 -26 12 -31 8 -4 -5 -5 -2 0 5 6 12 3 12 -16 1 -31 -17 -56 -18
-56 -4 0 6 10 11 21 10 12 -1 30 2 41 8 13 7 20 6 23 -2 5 -15 23 -14 20 1 -2
7 3 13 10 14 6 1 13 2 15 4 1 1 15 4 32 6 16 3 36 11 44 17 12 9 13 9 7 0 -4
-8 -1 -13 9 -13 9 0 13 5 10 10 -3 6 -1 10 4 10 6 0 11 -5 11 -11 0 -5 5 -7
10 -4 6 4 8 10 6 14 -3 3 4 7 14 7 10 0 16 -4 14 -8 -3 -4 2 -8 10 -8 20 0 20
5 0 24 -8 9 -11 16 -5 16 5 0 17 -10 26 -22z m-2919 -60 c-1 -7 -5 -19 -10
-26 -4 -7 -2 -20 6 -29 9 -12 10 -15 0 -9 -7 4 -15 1 -18 -9 -6 -13 -8 -14
-15 -3 -12 18 -11 24 7 42 11 11 12 16 3 16 -7 0 -4 6 7 15 23 18 23 18 20 3z
m2587 -18 c4 -14 10 -18 23 -13 14 5 16 3 11 -13 -7 -18 -6 -18 8 1 18 23 56
30 48 8 -4 -11 -8 -11 -21 -1 -9 8 -13 8 -9 2 10 -17 -32 -40 -68 -38 -16 0
-36 -4 -44 -10 -11 -8 -13 -8 -8 1 4 6 3 14 -2 17 -14 9 -43 -5 -38 -18 3 -7
-1 -22 -7 -35 l-13 -23 -31 27 c-20 17 -32 22 -32 13 0 -10 -2 -10 -9 1 -7 11
1 25 27 52 20 20 42 34 47 30 6 -3 24 -5 40 -3 17 1 38 3 48 3 9 0 15 4 12 10
-4 5 -2 9 3 9 5 0 12 -9 15 -20z m-1326 -4 c-1 -5 4 -11 11 -12 6 -1 15 -3 20
-4 4 -1 11 -2 15 -1 5 1 6 -3 2 -9 -3 -6 -11 -8 -16 -5 -5 4 -9 0 -9 -7 0 -9
-3 -9 -10 2 -11 17 -30 20 -47 8 -6 -5 -14 -4 -18 2 -8 12 20 37 41 37 7 0 12
-5 11 -11z m-114 -9 c4 3 7 0 7 -8 0 -11 2 -11 10 1 5 8 10 10 10 4 0 -18 -12
-24 -31 -14 -26 15 -35 -7 -12 -33 13 -16 14 -18 2 -9 -9 7 -21 12 -25 11 -21
-3 -26 2 -14 16 7 8 9 15 5 15 -4 0 -2 7 5 15 9 11 16 12 25 5 6 -5 15 -7 18
-3z m82 -56 c-7 -6 -45 35 -45 50 0 4 12 -3 26 -18 14 -14 22 -28 19 -32z
m1195 49 c0 -5 -4 -10 -10 -10 -5 0 -10 5 -10 10 0 6 5 10 10 10 6 0 10 -4 10
-10z m640 -21 c0 -5 -4 -7 -10 -4 -5 3 -10 2 -10 -4 0 -5 6 -12 13 -14 9 -4 9
-6 0 -6 -15 -1 -26 16 -18 29 8 13 25 13 25 -1z m-1400 -19 c0 9 4 9 16 -1 9
-8 24 -14 32 -14 8 0 16 -8 18 -17 1 -10 -2 -18 -8 -18 -6 0 -7 8 -4 18 5 14
4 14 -9 -2 -14 -19 -15 -19 -36 0 -20 18 -21 18 -35 -1 -8 -11 -14 -14 -14 -6
0 8 -6 11 -16 7 -14 -6 -15 -4 -4 9 11 13 15 13 21 3 7 -10 9 -10 10 2 1 8 1
19 0 24 -1 5 5 4 13 -4 13 -10 16 -10 16 0z m150 -5 c4 3 13 -2 20 -10 16 -19
34 -19 50 0 9 11 17 12 32 4 13 -7 23 -7 32 0 7 6 16 8 20 4 3 -4 14 -8 24 -9
9 0 24 -3 32 -5 8 -2 14 2 12 9 -1 8 2 11 8 7 6 -3 7 -12 3 -18 -4 -7 -9 -23
-9 -37 -1 -14 -2 -28 -3 -33 -1 -4 -11 -1 -24 8 -13 8 -27 12 -32 8 -4 -5 -6
-2 -3 6 2 8 10 17 18 19 8 3 10 0 5 -9 -5 -8 -5 -11 0 -7 4 4 15 2 24 -4 9 -7
7 -2 -4 11 -18 22 -18 24 -2 18 11 -4 16 -3 12 4 -4 6 -14 8 -22 5 -9 -4 -12
-1 -8 7 4 6 -1 3 -9 -7 -14 -18 -21 -15 -17 7 1 5 -3 6 -8 3 -5 -4 -8 -17 -5
-31 7 -41 -38 -56 -55 -18 -11 24 -13 25 -31 8 -10 -9 -25 -15 -32 -12 -8 3
-2 9 15 17 15 7 27 18 27 23 0 5 -7 4 -16 -4 -13 -10 -17 -10 -24 0 -5 10 -9
10 -15 2 -5 -9 -10 -9 -20 -1 -8 7 -19 9 -25 5 -5 -3 -15 -3 -21 1 -8 4 -4 13
12 25 13 10 26 14 27 8 2 -5 7 -7 12 -4z m381 -10 c3 2 10 -5 17 -15 7 -12 8
-20 2 -20 -5 0 -10 6 -10 13 0 6 -5 4 -11 -5 -5 -10 -15 -18 -21 -18 -7 0 -7
5 1 14 9 11 9 16 0 22 -8 5 -10 3 -4 -7 6 -11 5 -12 -5 -2 -8 7 -15 19 -16 28
-2 12 1 12 20 0 13 -8 25 -13 27 -10z m107 11 c4 5 12 9 17 9 15 -1 52 -24 38
-25 -6 0 -14 4 -18 10 -3 5 -12 7 -20 4 -8 -4 -12 -11 -9 -16 4 -6 -2 -5 -14
1 -12 6 -24 17 -28 24 -5 7 -1 6 10 -2 11 -9 20 -11 24 -5z m-2358 -16 c0 -5
-7 -7 -15 -4 -8 4 -12 10 -9 15 6 11 24 2 24 -11z m2144 -18 c3 -5 -1 -9 -9
-9 -8 0 -12 4 -9 9 3 4 7 8 9 8 2 0 6 -4 9 -8z m276 -2 c0 -5 -4 -10 -10 -10
-5 0 -10 5 -10 10 0 6 5 10 10 10 6 0 10 -4 10 -10z m540 0 c0 -5 -2 -10 -4
-10 -3 0 -8 5 -11 10 -3 6 -1 10 4 10 6 0 11 -4 11 -10z m726 -273 c11 -11 13
-57 2 -63 -15 -10 -32 12 -33 45 -1 27 13 36 31 18z m-223 -16 c-2 -6 2 -11 7
-11 6 0 10 4 10 9 0 4 19 6 41 4 32 -4 40 -2 34 7 -5 9 -4 11 4 6 6 -4 9 -13
5 -19 -3 -7 0 -5 8 3 16 18 68 24 68 8 0 -6 -3 -8 -7 -5 -7 8 -33 -11 -33 -25
0 -5 5 -6 12 -2 7 4 8 3 4 -5 -4 -6 -13 -8 -19 -4 -7 4 -23 9 -37 10 -14 1
-37 4 -52 6 -14 2 -32 1 -39 -4 -13 -8 -59 17 -59 32 0 6 12 8 28 6 15 -3 26
-10 25 -16z"/>
<path d="M670 4099 c0 -5 5 -7 10 -4 6 3 10 8 10 11 0 2 -4 4 -10 4 -5 0 -10
-5 -10 -11z"/>
<path d="M669 3993 c-10 -12 -11 -15 -1 -9 7 4 20 2 30 -6 15 -11 15 -11 5 3
-7 9 -10 19 -6 22 3 4 2 7 -4 7 -6 0 -17 -8 -24 -17z"/>
<path d="M665 3916 c2 -27 31 -29 31 -2 0 13 -6 22 -16 22 -10 0 -16 -8 -15
-20z"/>
<path d="M673 3849 c-2 -23 3 -25 10 -4 4 8 3 16 -1 19 -4 3 -9 -4 -9 -15z"/>
<path d="M626 3833 c-6 -14 -5 -15 5 -6 7 7 10 15 7 18 -3 3 -9 -2 -12 -12z"/>
<path d="M640 3709 c-13 -7 -13 -9 -1 -9 13 0 13 -2 0 -12 -8 -7 -12 -12 -10
-11 8 5 30 -19 27 -30 -1 -7 -1 -9 1 -4 3 4 10 4 16 0 7 -3 4 3 -7 15 -15 17
-16 25 -7 36 15 17 1 28 -19 15z"/>
<path d="M619 3570 c-1 -3 -1 -8 0 -12 0 -4 -9 -12 -20 -18 -19 -10 -19 -13
-6 -28 20 -22 22 -33 5 -43 -8 -6 -9 -9 -1 -9 6 0 10 -8 8 -17 -2 -10 -4 -18
-5 -18 -1 0 -3 -7 -5 -16 -2 -11 3 -16 14 -14 9 1 15 8 13 14 -1 6 10 16 24
21 20 8 24 13 15 24 -6 7 -8 16 -5 19 4 4 8 18 10 33 2 25 2 25 -17 8 -23 -20
-24 -28 -5 -21 10 4 13 1 10 -7 -3 -7 -11 -13 -18 -13 -13 0 -17 70 -4 82 4 4
5 -5 2 -21 -4 -22 -2 -26 6 -18 6 6 13 22 14 36 2 17 -2 24 -16 24 -10 0 -19
-3 -19 -6z m-3 -49 c0 -16 -3 -17 -14 -9 -12 10 -7 19 13 28 1 0 1 -9 1 -19z
m37 -71 c6 -8 8 -11 3 -7 -12 9 -47 -23 -39 -36 3 -6 1 -7 -6 -3 -8 5 -9 12
-3 19 5 7 8 19 7 28 -3 20 20 19 38 -1z"/>
<path d="M538 3253 c-6 -7 -8 -16 -4 -20 3 -3 6 -1 6 5 0 7 3 11 8 11 17 -3
32 2 32 9 0 14 -29 10 -42 -5z"/>
<path d="M478 2929 c-9 -5 -15 -16 -12 -24 3 -7 -3 -19 -14 -26 -18 -12 -19
-14 -5 -24 16 -12 10 -35 -9 -35 -7 0 -6 6 2 15 7 9 8 15 2 15 -27 0 -17 -62
11 -66 9 -1 21 4 28 12 8 10 8 14 0 14 -6 0 -11 -5 -11 -12 0 -6 -3 -8 -7 -4
-5 4 1 14 11 22 11 8 15 14 8 14 -14 0 -9 58 7 88 13 25 13 25 -11 11z m-11
-64 c0 -8 -4 -12 -9 -9 -5 3 -6 10 -3 15 9 13 12 11 12 -6z m-9 -55 c-7 -10
-14 -17 -17 -15 -4 4 18 35 25 35 2 0 -1 -9 -8 -20z"/>
<path d="M450 2740 c-7 -17 -17 -27 -24 -23 -6 3 -3 -2 6 -13 9 -10 17 -23 18
-29 4 -18 25 -40 40 -43 10 -1 9 2 -4 13 -14 11 -16 15 -5 15 8 0 10 3 4 8 -6
4 -10 14 -10 22 1 8 -2 22 -6 31 -5 9 -3 21 2 26 7 7 7 13 1 17 -5 3 -15 -8
-22 -24z m15 -49 c1 -17 -1 -28 -6 -25 -5 3 -7 9 -4 14 3 5 1 11 -4 15 -6 3
-8 12 -4 21 8 21 15 11 18 -25z"/>
<path d="M436 2581 c-4 -5 -1 -13 5 -17 8 -4 7 -9 -2 -16 -12 -8 -12 -9 0 -6
16 5 24 35 11 43 -5 3 -11 1 -14 -4z"/>
<path d="M420 2442 c0 -4 9 -8 19 -8 11 0 17 4 15 8 -3 4 -12 8 -20 8 -8 0
-14 -4 -14 -8z"/>
<path d="M486 2215 c-3 -9 -2 -14 3 -11 5 3 11 -1 15 -9 3 -8 11 -15 18 -15
10 0 10 2 0 9 -7 4 -12 14 -10 21 4 19 -19 23 -26 5z"/>
<path d="M599 1953 c-8 -9 -9 -14 -2 -10 6 4 13 2 15 -5 3 -8 7 -6 11 5 9 23
-8 30 -24 10z"/>
<path d="M750 1739 c-11 -19 -10 -20 10 -9 11 6 18 15 15 21 -9 13 -13 11 -25
-12z"/>
<path d="M803 1673 c4 -6 0 -14 -9 -17 -8 -3 -13 -10 -10 -15 4 -5 0 -12 -6
-15 -7 -3 -2 -3 12 0 24 5 24 4 6 -10 -11 -9 -18 -17 -15 -19 2 -1 13 -9 24
-17 18 -14 19 -14 7 2 -8 10 -10 23 -6 30 12 19 13 58 1 65 -6 3 -7 1 -4 -4z"/>
<path d="M3260 782 c0 -5 -14 -8 -30 -7 -17 1 -33 -2 -36 -7 -3 -4 -9 -6 -14
-3 -7 4 -7 -3 -1 -34 1 -2 7 1 14 5 6 5 21 9 32 9 11 0 25 6 31 14 9 11 14 8
32 -16 17 -24 19 -33 9 -43 -9 -9 -9 -11 0 -6 6 3 14 2 18 -4 4 -6 10 -8 15
-5 4 3 23 -10 41 -27 19 -18 36 -33 39 -33 23 -6 40 -20 40 -32 0 -9 -5 -11
-12 -7 -7 4 -6 -1 3 -12 9 -10 14 -24 12 -31 -2 -6 1 -14 6 -18 6 -3 11 -1 11
4 0 6 5 11 11 11 5 0 7 -5 3 -12 -4 -6 -3 -8 3 -5 6 4 18 -2 27 -12 10 -10 14
-21 9 -23 -4 -3 -3 -3 4 -2 17 4 26 -13 11 -19 -9 -3 -6 -8 7 -13 11 -4 25
-15 32 -23 7 -9 13 -12 13 -7 0 5 7 3 15 -4 9 -7 13 -21 10 -30 -3 -11 1 -20
10 -24 9 -3 14 -2 11 3 -7 11 22 23 36 15 6 -4 18 2 26 12 12 15 14 16 9 2 -4
-12 -1 -16 13 -13 17 3 18 1 8 -15 -11 -17 -13 -17 -26 -2 -7 9 -11 11 -7 5 4
-9 0 -11 -12 -7 -10 3 -5 -2 10 -11 17 -10 25 -21 21 -28 -4 -7 1 -4 12 5 14
12 24 14 37 7 10 -6 14 -15 10 -22 -5 -9 -3 -9 8 -1 8 6 22 10 31 9 15 -3 15
0 -4 25 -12 17 -28 27 -38 25 -10 -2 -21 4 -24 12 -4 9 -9 13 -13 10 -3 -4
-14 5 -25 18 -11 14 -24 22 -29 19 -6 -4 -6 -10 0 -18 15 -18 2 -27 -22 -15
-14 8 -18 8 -13 0 4 -6 3 -11 -3 -11 -5 0 -9 9 -8 20 1 13 5 16 11 10 6 -6 14
-10 18 -10 13 0 5 22 -20 58 -13 17 -20 37 -17 42 4 7 -3 9 -19 6 -23 -4 -25
-2 -16 14 8 14 4 21 -16 34 -13 9 -23 24 -22 33 2 9 -2 18 -8 20 -7 2 -11 -4
-10 -14 0 -10 -5 -17 -11 -16 -7 2 -13 -2 -13 -7 0 -6 4 -10 10 -10 11 0 8
-36 -5 -47 -4 -5 -5 -3 -1 4 3 6 2 14 -4 18 -6 4 -8 10 -5 15 3 4 -2 10 -10
13 -9 4 -12 1 -8 -9 3 -7 -1 -14 -8 -14 -7 0 -10 3 -6 6 3 4 0 19 -8 35 -17
32 -13 36 32 34 18 -2 38 4 44 11 14 17 -2 19 -19 2 -9 -9 -12 -9 -12 0 0 8
-10 11 -25 8 -13 -3 -28 0 -31 6 -5 7 -12 4 -21 -7 -9 -14 -13 -15 -13 -4 0
12 -2 12 -10 -1 -8 -11 -9 -5 -5 20 6 33 5 34 -10 15 -12 -16 -14 -17 -9 -2 4
10 1 17 -7 17 -10 0 -10 3 -1 12 8 8 15 8 27 -2 8 -7 15 -8 15 -2 0 19 -26 32
-38 20 -9 -9 -12 -9 -13 0 -2 21 -4 27 -12 40 -5 6 -13 12 -18 12 -5 0 -1 -12
8 -27 14 -21 15 -26 3 -19 -8 4 -6 0 4 -8 11 -9 15 -16 8 -16 -6 0 -18 9 -26
21 -8 12 -19 18 -25 14 -7 -3 -11 -3 -10 2 4 21 -3 33 -21 43 -11 6 -20 7 -20
2z m-44 -24 c4 -7 4 -10 -1 -6 -4 4 -15 2 -24 -5 -14 -11 -14 -10 -2 6 16 20
18 21 27 5z m159 -82 c6 -4 -1 -2 -15 5 -14 7 -29 13 -34 14 -5 0 -10 8 -12
19 -3 19 -2 18 61 -38z m80 -47 c-4 -5 -12 -9 -18 -8 -9 0 -8 2 1 6 6 2 9 10
6 15 -4 7 -2 8 5 4 6 -4 9 -12 6 -17z m118 -95 c-3 -8 -9 -11 -14 -8 -5 3 -9
1 -9 -3 0 -5 9 -14 20 -21 14 -9 20 -9 20 -1 0 8 5 7 15 -1 9 -7 13 -20 10
-28 -3 -8 3 -16 15 -19 21 -6 28 -25 8 -21 -7 2 -12 -4 -10 -12 1 -8 -9 -1
-23 15 -19 22 -24 25 -19 10 5 -16 4 -17 -5 -5 -6 8 -8 24 -5 35 5 17 4 18 -7
5 -8 -8 -13 -13 -11 -11 1 3 -8 15 -19 27 -19 20 -20 24 -6 29 9 4 14 16 12
31 -2 23 -1 24 16 8 10 -9 15 -22 12 -30z m209 -174 c2 6 8 2 15 -9 14 -22 3
-23 -33 -3 -16 8 -24 8 -34 -1 -12 -10 -12 -9 -1 5 10 13 18 15 31 8 12 -6 20
-6 22 0z"/>
<path d="M3542 504 c10 -10 20 -16 22 -13 3 3 -5 11 -17 18 -21 13 -21 12 -5
-5z"/>
<path d="M3590 478 c1 -16 30 -56 30 -41 0 7 -4 14 -10 18 -5 3 -7 12 -3 20 3
8 0 15 -6 15 -6 0 -11 -6 -11 -12z"/>
<path d="M3300 779 c0 -9 29 -39 38 -39 3 0 1 5 -5 11 -6 6 -9 17 -7 24 3 6
-2 12 -11 12 -8 0 -15 -4 -15 -8z"/>
<path d="M3454 727 c-31 -31 -46 -64 -34 -72 5 -3 10 -1 10 4 0 6 6 11 13 11
14 0 40 36 44 63 4 23 -7 21 -33 -6z m10 -21 c-3 -8 -13 -17 -22 -21 -13 -5
-13 -2 3 15 21 24 26 25 19 6z"/>
<path d="M3467 604 c6 -17 31 -25 38 -13 4 5 11 7 16 4 5 -4 9 -1 9 4 0 6 -6
11 -12 12 -7 0 -23 2 -35 3 -13 2 -19 -2 -16 -10z"/>
<path d="M430 699 c0 -5 5 -7 10 -4 6 3 10 8 10 11 0 2 -4 4 -10 4 -5 0 -10
-5 -10 -11z"/>
<path d="M2890 702 c-19 -20 -29 -33 -22 -28 7 4 21 -2 34 -14 16 -14 24 -17
29 -8 4 7 6 15 3 20 -3 4 7 15 21 24 21 14 28 14 43 3 15 -13 16 -12 3 4 -15
19 -1 23 17 5 17 -17 59 -17 59 -1 0 6 -4 10 -9 7 -5 -3 -15 0 -23 6 -11 10
-15 10 -15 1 0 -7 -5 -9 -10 -6 -6 4 -7 11 -4 17 4 6 0 6 -13 -1 -11 -6 -23
-7 -27 -4 -3 3 -6 1 -6 -5 0 -7 -5 -12 -11 -12 -5 0 -7 6 -3 13 4 6 4 9 -1 5
-4 -4 -13 -4 -19 1 -7 5 -24 -5 -46 -27z m38 -14 c-11 -11 -15 -18 -7 -18 7 0
9 -3 6 -6 -4 -4 -13 -1 -21 6 -14 11 -13 15 1 34 13 17 21 20 30 12 9 -9 8
-15 -9 -28z"/>
<path d="M2909 693 c-13 -16 -12 -17 4 -4 16 13 21 21 13 21 -2 0 -10 -8 -17
-17z"/>
<path d="M1689 723 c-12 -16 -12 -17 2 -6 9 7 20 9 24 5 5 -4 5 -1 1 6 -9 16
-11 15 -27 -5z"/>
<path d="M2135 660 c3 -5 11 -10 16 -10 6 0 7 5 4 10 -3 6 -11 10 -16 10 -6 0
-7 -4 -4 -10z"/>
<path d="M2240 659 c-12 -9 -12 -10 4 -5 10 4 24 2 31 -4 9 -8 15 -8 20 0 3 5
5 10 3 11 -30 7 -46 6 -58 -2z"/>
<path d="M2357 662 c-4 -5 0 -18 8 -28 15 -18 15 -18 8 1 -6 18 -5 18 10 6 10
-8 19 -12 20 -10 1 2 9 13 17 24 14 19 14 19 -6 3 -18 -16 -22 -16 -36 -2 -9
9 -18 12 -21 6z"/>
<path d="M2386 612 c-3 -5 1 -9 9 -9 8 0 15 4 15 9 0 4 -4 8 -9 8 -6 0 -12 -4
-15 -8z"/>
<path d="M4079 368 c-5 -16 -4 -46 2 -42 4 2 7 13 6 24 -1 17 -5 26 -8 18z"/>
<path d="M3831 357 c2 -2 11 -8 20 -15 12 -9 16 -9 16 1 0 7 -9 14 -20 14 -11
1 -18 1 -16 0z"/>
<path d="M3994 344 c-18 -14 -18 -15 4 -4 12 6 22 13 22 15 0 8 -5 6 -26 -11z"/>
<path d="M820 4620 c-9 -6 -10 -10 -3 -10 6 0 15 5 18 10 8 12 4 12 -15 0z"/>
<path d="M715 4569 c-4 -6 -5 -12 -2 -15 2 -3 7 2 10 11 7 17 1 20 -8 4z"/>
<path d="M740 4560 c-9 -6 -10 -10 -3 -10 6 0 15 5 18 10 8 12 4 12 -15 0z"/>
<path d="M797 4553 c-10 -9 -9 -23 1 -23 5 0 9 7 9 15 0 17 -1 18 -10 8z"/>
<path d="M776 4503 c-6 -14 -5 -15 5 -6 7 7 10 15 7 18 -3 3 -9 -2 -12 -12z"/>
<path d="M646 4498 c3 -5 10 -6 15 -3 13 9 11 12 -6 12 -8 0 -12 -4 -9 -9z"/>
<path d="M750 4490 c6 -11 15 -20 20 -20 6 0 2 9 -7 20 -10 11 -19 20 -21 20
-1 0 2 -9 8 -20z"/>
<path d="M730 4487 c0 -5 5 -17 11 -28 7 -15 7 -24 -2 -35 -7 -9 -8 -14 -1
-14 6 0 12 5 14 10 2 6 13 12 25 12 11 1 19 7 16 14 -2 7 0 15 6 19 14 8 14
25 0 25 -5 0 -7 -5 -4 -10 3 -6 -1 -13 -9 -16 -9 -3 -13 -10 -10 -15 3 -5 1
-9 -5 -9 -6 0 -17 12 -25 28 -8 15 -15 23 -16 19z"/>
<path d="M706 4462 c-3 -5 1 -9 9 -9 8 0 12 4 9 9 -3 4 -7 8 -9 8 -2 0 -6 -4
-9 -8z"/>
<path d="M657 4453 c-10 -9 -9 -23 1 -23 5 0 9 7 9 15 0 17 -1 18 -10 8z"/>
<path d="M616 4418 c3 -5 10 -6 15 -3 13 9 11 12 -6 12 -8 0 -12 -4 -9 -9z"/>
<path d="M697 4419 c7 -7 15 -10 18 -7 3 3 -2 9 -12 12 -14 6 -15 5 -6 -5z"/>
<path d="M762 4408 c-18 -18 -15 -27 7 -25 14 1 17 5 10 13 -7 8 -6 14 3 17 7
3 8 6 3 6 -6 1 -16 -4 -23 -11z"/>
<path d="M680 4400 c8 -5 20 -10 25 -10 6 0 3 5 -5 10 -8 5 -19 10 -25 10 -5
0 -3 -5 5 -10z"/>
<path d="M616 4378 c3 -4 11 -5 19 -1 21 7 19 12 -4 10 -11 0 -18 -5 -15 -9z"/>
<path d="M666 4377 c3 -10 9 -15 12 -12 3 3 0 11 -7 18 -10 9 -11 8 -5 -6z"/>
<path d="M758 4363 c7 -3 16 -2 19 1 4 3 -2 6 -13 5 -11 0 -14 -3 -6 -6z"/>
<path d="M637 4313 c-12 -11 -8 -23 7 -23 8 0 18 4 21 10 4 6 -1 7 -11 3 -12
-4 -15 -3 -10 5 8 13 3 16 -7 5z"/>
<path d="M509 4183 c-13 -16 -12 -17 4 -4 9 7 17 15 17 17 0 8 -8 3 -21 -13z"/>
<path d="M593 4185 c0 -8 4 -15 9 -15 4 0 8 4 8 9 0 6 -4 12 -8 15 -5 3 -9 -1
-9 -9z"/>
<path d="M555 4180 c3 -5 8 -10 11 -10 2 0 4 5 4 10 0 6 -5 10 -11 10 -5 0 -7
-4 -4 -10z"/>
<path d="M627 4155 c3 -8 9 -12 14 -9 12 7 11 11 -5 17 -10 4 -13 1 -9 -8z"/>
<path d="M600 4151 c0 -6 4 -13 10 -16 6 -3 7 1 4 9 -7 18 -14 21 -14 7z"/>
<path d="M573 4114 c0 -9 4 -11 12 -4 7 5 14 9 16 7 2 -1 3 0 1 2 -7 11 -29 7
-29 -5z"/>
<path d="M593 4072 c0 -12 5 -22 9 -22 11 0 10 12 -2 30 -7 12 -9 10 -7 -8z"/>
<path d="M560 4012 c-18 -15 -20 -19 -7 -19 10 0 15 3 12 5 -3 3 3 11 13 18 9
7 14 14 11 14 -4 0 -17 -8 -29 -18z"/>
<path d="M510 4001 c0 -6 4 -12 8 -15 5 -3 9 1 9 9 0 8 -4 15 -9 15 -4 0 -8
-4 -8 -9z"/>
<path d="M576 3955 c5 -11 2 -13 -10 -9 -9 3 -16 2 -16 -4 0 -17 35 -6 38 11
2 10 -1 17 -7 17 -6 0 -8 -7 -5 -15z"/>
<path d="M514 3918 c-4 -7 -4 -10 1 -6 4 4 15 2 24 -5 14 -11 14 -10 2 6 -16
20 -18 21 -27 5z"/>
<path d="M510 3885 c0 -7 30 -13 34 -7 3 4 -4 9 -15 9 -10 1 -19 0 -19 -2z"/>
<path d="M556 3873 c-6 -14 -5 -15 5 -6 7 7 10 15 7 18 -3 3 -9 -2 -12 -12z"/>
<path d="M496 3862 c-3 -4 4 -9 15 -9 23 -2 25 3 4 10 -8 4 -16 3 -19 -1z"/>
<path d="M493 3735 c-4 -5 -2 -7 2 -2 5 4 16 0 26 -9 11 -10 19 -12 24 -4 3 6
3 10 -2 9 -20 -3 -27 2 -13 11 11 7 10 9 -8 7 -13 -1 -26 -6 -29 -12z"/>
<path d="M560 3736 c11 -15 12 -20 3 -23 -7 -3 -13 -9 -13 -14 0 -12 38 12 45
29 3 7 0 10 -6 7 -5 -4 -18 -1 -27 7 -16 12 -16 11 -2 -6z"/>
<path d="M474 3688 l-19 -23 23 19 c21 18 27 26 19 26 -2 0 -12 -10 -23 -22z"/>
<path d="M530 3691 c0 -10 19 -25 25 -20 1 2 -3 10 -11 17 -8 7 -14 8 -14 3z"/>
<path d="M513 3630 c-11 -16 -10 -18 2 -14 8 4 15 12 15 20 0 19 -3 18 -17 -6z"/>
<path d="M530 3600 c0 -5 5 -10 10 -10 6 0 10 5 10 10 0 6 -4 10 -10 10 -5 0
-10 -4 -10 -10z"/>
<path d="M467 3559 c7 -7 15 -10 18 -7 3 3 -2 9 -12 12 -14 6 -15 5 -6 -5z"/>
<path d="M496 3523 c-6 -14 -5 -15 5 -6 7 7 10 15 7 18 -3 3 -9 -2 -12 -12z"/>
<path d="M514 3485 c0 -14 3 -25 7 -25 3 0 7 11 7 25 0 14 -4 25 -7 25 -4 0
-7 -11 -7 -25z"/>
<path d="M436 3482 c-3 -5 1 -9 9 -9 8 0 12 4 9 9 -3 4 -7 8 -9 8 -2 0 -6 -4
-9 -8z"/>
<path d="M476 3421 c-3 -5 1 -14 8 -20 10 -9 16 -9 21 -1 4 6 1 9 -7 8 -7 -2
-12 3 -10 10 2 14 -4 16 -12 3z"/>
<path d="M508 3423 c6 -2 18 -2 25 0 6 3 1 5 -13 5 -14 0 -19 -2 -12 -5z"/>
<path d="M435 3409 c-4 -6 -5 -12 -2 -15 2 -3 7 2 10 11 7 17 1 20 -8 4z"/>
<path d="M531 3394 c0 -11 3 -14 6 -6 3 7 2 16 -1 19 -3 4 -6 -2 -5 -13z"/>
<path d="M480 3355 c-11 -13 -10 -14 4 -9 9 3 16 10 16 15 0 13 -6 11 -20 -6z"/>
<path d="M417 3335 c-4 -8 -3 -16 1 -19 4 -3 9 4 9 15 2 23 -3 25 -10 4z"/>
<path d="M459 3313 c-12 -16 -12 -17 1 -7 8 6 22 14 30 17 13 5 12 6 -1 6 -9
1 -23 -7 -30 -16z"/>
<path d="M455 3280 c-3 -6 1 -7 9 -4 18 7 21 14 7 14 -6 0 -13 -4 -16 -10z"/>
<path d="M490 3280 c0 -5 5 -10 10 -10 6 0 10 5 10 10 0 6 -4 10 -10 10 -5 0
-10 -4 -10 -10z"/>
<path d="M415 3260 c3 -5 8 -10 11 -10 2 0 4 5 4 10 0 6 -5 10 -11 10 -5 0 -7
-4 -4 -10z"/>
<path d="M476 3256 c4 -11 0 -14 -15 -11 -12 2 -19 0 -16 -5 7 -11 38 -6 42 7
2 6 -1 14 -6 18 -7 3 -8 0 -5 -9z"/>
<path d="M433 3215 c0 -8 4 -12 9 -9 5 3 6 10 3 15 -9 13 -12 11 -12 -6z"/>
<path d="M376 3202 c-2 -4 -1 -14 4 -22 7 -11 9 -9 7 8 -1 24 -3 26 -11 14z"/>
<path d="M430 3166 c0 -2 7 -7 16 -10 8 -3 12 -2 9 4 -6 10 -25 14 -25 6z"/>
<path d="M470 3153 c0 -5 5 -15 10 -23 7 -12 9 -10 7 8 -1 19 -17 33 -17 15z"/>
<path d="M435 3131 c-3 -7 0 -8 9 -5 9 3 16 1 16 -4 0 -6 -7 -13 -15 -15 -11
-4 -10 -4 2 -3 10 1 18 8 18 15 0 18 -21 26 -30 12z"/>
<path d="M402 3101 c-10 -6 -10 -10 2 -20 11 -9 16 -9 22 0 5 8 3 9 -6 4 -10
-6 -12 -4 -7 8 7 19 7 20 -11 8z"/>
<path d="M443 3074 c-15 -16 -16 -24 -4 -24 8 0 24 30 19 35 -2 2 -9 -3 -15
-11z"/>
<path d="M350 3060 c0 -5 5 -10 11 -10 5 0 7 5 4 10 -3 6 -8 10 -11 10 -2 0
-4 -4 -4 -10z"/>
<path d="M388 3057 c8 -9 11 -21 7 -26 -3 -7 0 -8 9 -5 22 8 20 17 -6 33 -21
13 -22 13 -10 -2z"/>
<path d="M466 3054 c-3 -9 -4 -20 0 -25 3 -5 0 -9 -5 -9 -6 0 -11 -4 -11 -9 0
-4 9 -8 20 -7 11 0 20 5 19 10 0 5 6 13 15 18 9 5 13 14 10 20 -5 7 -12 5 -20
-7 -8 -10 -17 -16 -20 -12 -4 4 -1 13 6 22 7 8 8 15 2 15 -5 0 -13 -7 -16 -16z"/>
<path d="M430 3020 c-6 -11 -8 -20 -5 -20 3 0 -3 -10 -15 -22 -11 -12 -20 -27
-20 -32 1 -12 41 38 42 51 0 4 4 16 9 26 5 9 7 17 5 17 -3 0 -10 -9 -16 -20z"/>
<path d="M359 3008 c15 -21 31 -23 31 -6 0 6 -3 8 -7 5 -3 -4 -13 -1 -22 6
-14 11 -14 10 -2 -5z"/>
<path d="M339 2913 c-13 -16 -12 -17 4 -4 9 7 17 15 17 17 0 8 -8 3 -21 -13z"/>
<path d="M363 2895 c-3 -9 -3 -19 1 -22 3 -4 6 1 6 11 0 10 5 14 12 10 7 -4 8
-3 4 4 -10 16 -15 15 -23 -3z"/>
<path d="M343 2838 c1 -15 6 -23 11 -18 4 4 4 16 -2 26 -9 16 -10 14 -9 -8z"/>
<path d="M317 2813 c-10 -9 -9 -23 1 -23 5 0 9 7 9 15 0 17 -1 18 -10 8z"/>
<path d="M367 2799 c7 -7 15 -10 18 -7 3 3 -2 9 -12 12 -14 6 -15 5 -6 -5z"/>
<path d="M355 2720 c2 -11 -2 -20 -8 -20 -7 0 -4 -5 6 -11 10 -6 21 -8 24 -5
4 3 1 6 -5 6 -6 0 -9 9 -7 20 2 11 0 22 -5 25 -5 3 -7 -4 -5 -15z"/>
<path d="M353 2644 c0 -16 13 -19 21 -5 3 5 0 11 -7 14 -8 3 -14 -1 -14 -9z"/>
<path d="M335 2623 c3 -3 -4 -16 -15 -28 -15 -16 -17 -22 -6 -22 8 0 14 5 13
11 -1 6 3 10 10 9 12 -2 12 23 0 32 -4 3 -5 2 -2 -2z"/>
<path d="M348 2573 c6 -2 18 -2 25 0 6 3 1 5 -13 5 -14 0 -19 -2 -12 -5z"/>
<path d="M295 2500 c3 -5 8 -10 11 -10 2 0 4 5 4 10 0 6 -5 10 -11 10 -5 0 -7
-4 -4 -10z"/>
<path d="M350 2500 c0 -5 5 -10 10 -10 6 0 10 5 10 10 0 6 -4 10 -10 10 -5 0
-10 -4 -10 -10z"/>
<path d="M505 2472 c-23 -17 -26 -78 -4 -98 11 -10 19 -13 19 -8 0 5 5 2 10
-6 7 -11 4 -19 -12 -31 l-21 -17 21 -11 c12 -6 19 -19 18 -29 -2 -9 3 -24 12
-32 14 -13 15 -12 9 3 -3 9 -2 19 3 22 10 6 9 45 -1 45 -4 0 -6 8 -5 18 2 9
-5 28 -16 41 -10 13 -16 32 -13 42 3 9 1 20 -4 23 -5 4 -8 15 -6 26 4 22 4 23
-10 12z m9 -53 c-3 -5 -10 -7 -15 -3 -5 3 -7 10 -3 15 3 5 10 7 15 3 5 -3 7
-10 3 -15z m4 -44 c-3 -3 -9 2 -12 12 -6 14 -5 15 5 6 7 -7 10 -15 7 -18z m29
-57 c0 -7 4 -22 7 -33 5 -13 2 -12 -8 5 -17 29 -20 40 -8 40 5 0 9 -6 9 -12z"/>
<path d="M295 2460 c3 -5 8 -10 11 -10 2 0 4 5 4 10 0 6 -5 10 -11 10 -5 0 -7
-4 -4 -10z"/>
<path d="M350 2440 c0 -5 7 -7 15 -4 8 4 15 8 15 10 0 2 -7 4 -15 4 -8 0 -15
-4 -15 -10z"/>
<path d="M365 2419 c-6 -8 -4 -10 5 -4 9 5 10 1 6 -16 -6 -21 -6 -22 5 -6 7
13 8 22 1 29 -6 6 -12 6 -17 -3z"/>
<path d="M334 2409 c-3 -6 -2 -15 3 -20 5 -5 9 -1 9 11 0 23 -2 24 -12 9z"/>
<path d="M367 2359 c7 -7 15 -10 18 -7 3 3 -2 9 -12 12 -14 6 -15 5 -6 -5z"/>
<path d="M313 2325 c0 -8 4 -12 9 -9 5 3 6 10 3 15 -9 13 -12 11 -12 -6z"/>
<path d="M4595 2289 c-4 -6 -5 -12 -2 -15 2 -3 7 2 10 11 7 17 1 20 -8 4z"/>
<path d="M373 2227 c-1 -11 -1 -18 0 -16 2 2 8 11 15 20 9 12 9 16 -1 16 -7 0
-14 -9 -14 -20z"/>
<path d="M4506 2238 c3 -5 10 -6 15 -3 13 9 11 12 -6 12 -8 0 -12 -4 -9 -9z"/>
<path d="M416 2217 c3 -10 9 -15 12 -12 3 3 0 11 -7 18 -10 9 -11 8 -5 -6z"/>
<path d="M385 2200 c-3 -6 1 -7 9 -4 18 7 21 14 7 14 -6 0 -13 -4 -16 -10z"/>
<path d="M586 2194 c-5 -12 -10 -14 -19 -5 -10 8 -14 7 -14 -4 0 -20 27 -28
34 -10 5 13 7 13 18 -2 7 -10 11 -21 9 -25 -3 -5 0 -8 6 -8 6 0 8 -5 5 -11 -5
-6 -12 -4 -20 7 -7 10 -20 18 -28 20 -14 2 -15 -2 -7 -17 6 -10 8 -19 4 -19
-3 0 -1 -7 6 -15 9 -11 16 -12 26 -4 7 6 17 8 23 5 5 -3 11 1 15 9 3 8 1 17
-5 20 -5 4 -7 11 -4 16 4 5 -1 12 -10 15 -8 4 -14 13 -13 22 4 21 -18 27 -26
6z m20 -81 c-10 -11 -19 -7 -22 10 -2 15 0 16 12 6 8 -6 12 -14 10 -16z"/>
<path d="M405 2159 c-3 -4 2 -6 10 -5 21 3 28 13 10 13 -9 0 -18 -4 -20 -8z"/>
<path d="M435 2141 c-3 -5 0 -13 6 -17 8 -5 9 -3 4 6 -6 10 -4 12 9 7 10 -4
15 -3 11 3 -8 13 -22 13 -30 1z"/>
<path d="M400 2126 c0 -2 8 -10 18 -17 15 -13 16 -12 3 4 -13 16 -21 21 -21
13z"/>
<path d="M470 2120 c-12 -7 -10 -9 8 -7 12 0 22 5 22 9 0 11 -12 10 -30 -2z"/>
<path d="M478 2093 c7 -3 16 -2 19 1 4 3 -2 6 -13 5 -11 0 -14 -3 -6 -6z"/>
<path d="M366 2082 c-2 -4 4 -8 14 -8 10 0 16 4 14 8 -3 4 -9 8 -14 8 -5 0
-11 -4 -14 -8z"/>
<path d="M626 2065 c4 -8 11 -15 16 -15 6 0 5 6 -2 15 -7 8 -14 15 -16 15 -2
0 -1 -7 2 -15z"/>
<path d="M460 2060 c-11 -8 -7 -9 14 -4 22 5 27 4 21 -6 -5 -9 -4 -11 4 -6 13
9 5 26 -12 26 -7 0 -19 -5 -27 -10z"/>
<path d="M516 2045 c-3 -9 -2 -14 3 -11 5 3 12 -1 15 -10 4 -9 9 -14 12 -11 3
3 -1 15 -9 27 -12 18 -15 19 -21 5z"/>
<path d="M497 2009 c4 -13 8 -18 11 -10 2 7 -1 18 -6 23 -8 8 -9 4 -5 -13z"/>
<path d="M665 2012 c-19 -14 -14 -31 15 -52 17 -12 30 -27 30 -34 0 -8 7 -19
15 -26 11 -9 12 -16 5 -25 -16 -19 2 -26 24 -9 21 15 21 16 -9 32 -11 6 -14
12 -7 12 7 0 10 5 6 12 -4 7 -3 8 5 4 6 -4 9 -12 6 -17 -4 -5 -1 -9 4 -9 6 0
11 6 11 14 0 13 -29 29 -54 31 -5 0 -11 7 -13 15 -3 9 -1 11 4 5 12 -16 68
-10 58 5 -5 7 -11 8 -19 1 -7 -6 -17 -6 -26 -1 -8 5 -18 6 -22 4 -4 -3 -8 -1
-8 5 0 5 5 13 11 17 8 4 7 9 -2 15 -17 11 -21 11 -34 1z m16 -15 c-6 -8 -7
-18 -3 -22 4 -5 2 -5 -5 -1 -14 8 -6 36 9 36 7 0 6 -5 -1 -13z"/>
<path d="M526 1984 c-11 -8 -16 -14 -10 -14 13 0 39 18 34 24 -3 2 -14 -2 -24
-10z"/>
<path d="M470 1986 c0 -2 7 -7 16 -10 8 -3 12 -2 9 4 -6 10 -25 14 -25 6z"/>
<path d="M4330 1939 c0 -5 5 -7 10 -4 6 3 10 8 10 11 0 2 -4 4 -10 4 -5 0 -10
-5 -10 -11z"/>
<path d="M780 1921 c0 -5 5 -13 10 -16 6 -3 10 -2 10 4 0 5 -4 13 -10 16 -5 3
-10 2 -10 -4z"/>
<path d="M515 1901 c-3 -5 -2 -12 3 -15 5 -3 9 1 9 9 0 17 -3 19 -12 6z"/>
<path d="M548 1898 c5 -5 16 -8 23 -6 8 3 3 7 -10 11 -17 4 -21 3 -13 -5z"/>
<path d="M4273 1893 c0 -9 4 -10 14 -2 7 6 13 12 13 14 0 1 -6 2 -13 2 -8 0
-14 -6 -14 -14z"/>
<path d="M4236 1882 c-3 -5 1 -9 9 -9 8 0 12 4 9 9 -3 4 -7 8 -9 8 -2 0 -6 -4
-9 -8z"/>
<path d="M555 1870 c-4 -6 -11 -7 -17 -4 -7 4 -8 2 -4 -5 6 -9 11 -9 22 0 14
11 18 19 10 19 -3 0 -8 -5 -11 -10z"/>
<path d="M4295 1860 c3 -5 8 -10 11 -10 2 0 4 5 4 10 0 6 -5 10 -11 10 -5 0
-7 -4 -4 -10z"/>
<path d="M595 1849 c4 -5 1 -17 -7 -26 -12 -15 -11 -15 10 -2 26 16 28 25 6
33 -9 3 -12 2 -9 -5z"/>
<path d="M4202 1837 c-8 -10 -6 -13 7 -13 11 0 17 6 14 13 -3 7 -6 13 -8 13
-1 0 -7 -6 -13 -13z"/>
<path d="M786 1832 c-3 -5 1 -9 9 -9 8 0 12 4 9 9 -3 4 -7 8 -9 8 -2 0 -6 -4
-9 -8z"/>
<path d="M633 1808 c-2 -18 0 -20 7 -8 12 18 13 30 2 30 -4 0 -9 -10 -9 -22z"/>
<path d="M655 1799 c-11 -16 -1 -19 13 -3 7 8 8 14 3 14 -5 0 -13 -5 -16 -11z"/>
<path d="M4165 1800 c-3 -6 1 -7 9 -4 18 7 21 14 7 14 -6 0 -13 -4 -16 -10z"/>
<path d="M4205 1800 c3 -5 8 -10 11 -10 2 0 4 5 4 10 0 6 -5 10 -11 10 -5 0
-7 -4 -4 -10z"/>
<path d="M575 1780 c-3 -5 -1 -10 4 -10 6 0 11 5 11 10 0 6 -2 10 -4 10 -3 0
-8 -4 -11 -10z"/>
<path d="M803 1770 c7 -14 13 -35 12 -48 -2 -21 -1 -22 16 -6 15 14 19 14 19
3 0 -11 2 -12 9 -1 4 8 12 13 17 12 5 -1 10 3 12 8 2 6 -9 9 -25 7 -20 -2 -34
4 -51 23 -23 27 -23 27 -9 2z"/>
<path d="M4256 1778 c3 -4 11 -5 19 -1 21 7 19 12 -4 10 -11 0 -18 -5 -15 -9z"/>
<path d="M675 1689 c-4 -6 -5 -12 -2 -15 2 -3 7 2 10 11 7 17 1 20 -8 4z"/>
<path d="M690 1642 c0 -4 12 -8 28 -9 23 -1 24 -1 7 7 -26 11 -35 12 -35 2z"/>
<path d="M864 1639 c3 -16 43 -22 51 -9 4 7 -3 9 -19 6 -13 -2 -27 0 -30 5 -2
5 -3 4 -2 -2z"/>
<path d="M677 1551 c-10 -12 -9 -13 3 -6 25 15 42 15 36 -1 -8 -20 1 -17 13 4
8 15 6 18 -15 18 -14 0 -30 -7 -37 -15z"/>
<path d="M730 1520 c0 -5 5 -10 10 -10 6 0 10 5 10 10 0 6 -4 10 -10 10 -5 0
-10 -4 -10 -10z"/>
<path d="M707 1506 c-4 -10 -3 -15 3 -11 6 3 10 1 10 -6 0 -7 3 -10 6 -6 3 3
2 13 -4 22 -8 16 -9 16 -15 1z"/>
<path d="M655 1500 c3 -5 8 -10 11 -10 2 0 4 5 4 10 0 6 -5 10 -11 10 -5 0 -7
-4 -4 -10z"/>
<path d="M687 1479 c7 -7 15 -10 18 -7 3 3 -2 9 -12 12 -14 6 -15 5 -6 -5z"/>
<path d="M635 1440 c-3 -5 -1 -10 4 -10 6 0 11 5 11 10 0 6 -2 10 -4 10 -3 0
-8 -4 -11 -10z"/>
<path d="M666 1422 c-3 -5 1 -9 9 -9 8 0 12 4 9 9 -3 4 -7 8 -9 8 -2 0 -6 -4
-9 -8z"/>
<path d="M629 1403 c-13 -16 -12 -17 4 -4 9 7 17 15 17 17 0 8 -8 3 -21 -13z"/>
<path d="M650 1371 c0 -10 19 -25 25 -20 1 2 -3 10 -11 17 -8 7 -14 8 -14 3z"/>
<path d="M635 1340 c6 -30 16 -40 12 -12 -2 12 -6 24 -10 28 -3 4 -4 -4 -2
-16z"/>
<path d="M600 1315 c-11 -13 -10 -14 5 -9 14 6 16 4 10 -6 -5 -8 -4 -11 3 -6
6 4 9 13 5 21 -7 19 -8 19 -23 0z"/>
<path d="M536 1302 c-3 -5 1 -9 9 -9 8 0 12 4 9 9 -3 4 -7 8 -9 8 -2 0 -6 -4
-9 -8z"/>
<path d="M648 1296 c-10 -7 -15 -16 -11 -19 10 -10 25 -8 19 2 -4 5 0 11 6 14
7 2 11 7 8 10 -3 3 -13 0 -22 -7z"/>
<path d="M579 1272 c-11 -14 -11 -15 1 -5 11 10 17 9 32 -4 10 -9 20 -14 23
-11 3 3 -5 12 -19 21 -22 15 -25 15 -37 -1z"/>
<path d="M495 1271 c-3 -5 -2 -12 3 -15 5 -3 9 1 9 9 0 17 -3 19 -12 6z"/>
<path d="M605 1240 c11 -14 20 -26 21 -28 1 -1 7 5 15 15 11 13 11 15 1 9 -8
-5 -22 -1 -35 11 l-22 18 20 -25z"/>
<path d="M554 1239 c-4 -7 -3 -9 4 -5 5 3 13 0 15 -6 4 -9 6 -10 6 -1 1 17
-16 25 -25 12z"/>
<path d="M590 1221 c0 -5 5 -13 10 -16 6 -3 10 -2 10 4 0 5 -4 13 -10 16 -5 3
-10 2 -10 -4z"/>
<path d="M535 1209 c-4 -6 -5 -12 -2 -15 2 -3 7 2 10 11 7 17 1 20 -8 4z"/>
<path d="M582 1190 c7 -11 16 -20 20 -20 15 0 8 15 -12 28 -19 12 -20 11 -8
-8z"/>
<path d="M550 1184 c0 -7 27 -34 34 -34 4 0 1 9 -6 20 -12 19 -28 27 -28 14z"/>
<path d="M495 1169 c-4 -6 -5 -12 -2 -15 2 -3 7 2 10 11 7 17 1 20 -8 4z"/>
<path d="M470 1090 c-24 -19 -24 -19 -2 -13 12 3 22 10 22 15 0 5 5 6 12 2 7
-4 8 -3 4 4 -9 15 -6 15 -36 -8z"/>
<path d="M516 1085 c-3 -8 -1 -15 4 -15 6 0 10 7 10 15 0 8 -2 15 -4 15 -2 0
-6 -7 -10 -15z"/>
<path d="M460 1046 c0 -2 7 -9 15 -16 9 -7 15 -8 15 -2 0 5 -7 12 -15 16 -8 3
-15 4 -15 2z"/>
<path d="M432 1012 c8 -9 14 -10 16 -3 2 6 9 8 15 4 7 -3 9 -2 4 2 -4 5 -16 9
-27 10 -16 1 -17 -1 -8 -13z"/>
<path d="M393 965 c0 -8 4 -12 9 -9 5 3 6 10 3 15 -9 13 -12 11 -12 -6z"/>
<path d="M420 975 c0 -5 5 -17 10 -25 5 -8 10 -10 10 -5 0 6 -5 17 -10 25 -5
8 -10 11 -10 5z"/>
<path d="M465 960 c3 -5 1 -10 -6 -10 -7 0 -10 -2 -7 -5 8 -9 38 6 32 16 -3 5
-10 9 -15 9 -6 0 -7 -4 -4 -10z"/>
<path d="M405 920 c-3 -6 1 -7 9 -4 18 7 21 14 7 14 -6 0 -13 -4 -16 -10z"/>
<path d="M335 900 c3 -5 8 -10 11 -10 2 0 4 5 4 10 0 6 -5 10 -11 10 -5 0 -7
-4 -4 -10z"/>
<path d="M365 880 c-3 -5 3 -7 12 -6 10 2 22 -2 26 -8 6 -7 7 -6 5 3 -5 16
-35 24 -43 11z"/>
<path d="M379 858 c-6 -22 -5 -39 3 -45 6 -3 8 -1 4 5 -3 5 0 13 6 15 10 4 10
6 0 6 -7 1 -10 6 -7 11 3 6 4 10 1 10 -3 0 -6 -1 -7 -2z"/>
<path d="M410 841 c0 -5 7 -12 16 -15 24 -9 27 -7 10 9 -17 17 -26 19 -26 6z"/>
<path d="M396 805 c-3 -8 -1 -15 4 -15 6 0 10 7 10 15 0 8 -2 15 -4 15 -2 0
-6 -7 -10 -15z"/>
<path d="M1552 807 c-12 -14 -4 -31 16 -34 14 -3 16 13 2 22 -6 4 -8 11 -5 16
9 14 -1 11 -13 -4z"/>
<path d="M350 799 c0 -5 5 -7 10 -4 6 3 10 8 10 11 0 2 -4 4 -10 4 -5 0 -10
-5 -10 -11z"/>
<path d="M1523 800 c2 -8 -2 -22 -10 -31 -13 -15 -12 -17 4 -15 11 0 17 -5 15
-13 -3 -12 -1 -12 14 0 9 8 19 13 21 12 1 -2 5 -2 8 -2 21 6 52 4 62 -3 6 -5
14 -5 18 2 3 6 11 8 16 5 5 -4 15 0 23 7 11 11 9 16 -11 31 -14 11 -23 13 -23
6 0 -8 -4 -8 -15 1 -14 12 -19 7 -16 -15 1 -5 -5 -2 -12 7 -13 16 -15 16 -25
-6 -13 -30 -40 -28 -59 5 -8 13 -12 17 -10 9z m138 -19 c0 10 2 10 6 1 2 -6
10 -9 16 -5 7 3 8 2 4 -3 -5 -5 -13 -10 -18 -10 -11 -2 -17 -3 -26 -6 -3 -2
-7 8 -8 21 -2 22 -1 23 12 6 10 -14 13 -15 14 -4z m-48 -4 c3 -8 -1 -14 -8
-14 -7 0 -11 6 -8 14 3 7 6 13 8 13 2 0 5 -6 8 -13z"/>
<path d="M310 796 c0 -2 8 -10 18 -17 15 -13 16 -12 3 4 -13 16 -21 21 -21 13z"/>
<path d="M360 779 c-13 -9 -13 -10 0 -6 8 2 21 -3 28 -12 11 -14 11 -13 2 7
-12 25 -11 25 -30 11z"/>
<path d="M1750 770 c8 -14 13 -28 12 -32 -2 -8 19 -5 36 5 6 5 16 6 21 3 4 -3
17 2 27 10 10 9 13 13 6 9 -7 -4 -19 -2 -27 5 -10 8 -15 8 -21 -1 -5 -9 -11
-7 -21 6 -8 12 -13 14 -13 6 0 -11 -3 -11 -17 0 -15 13 -15 12 -3 -11z m34
-16 c3 -8 2 -12 -4 -9 -6 3 -10 10 -10 16 0 14 7 11 14 -7z"/>
<path d="M330 743 c0 -6 7 -16 15 -23 8 -7 12 -16 9 -21 -3 -5 0 -9 5 -9 16 0
14 9 -9 37 -11 14 -20 21 -20 16z"/>
<path d="M1876 741 c-4 -6 -2 -11 5 -11 8 0 8 -4 -1 -15 -9 -11 -16 -12 -25
-5 -21 18 -57 -5 -38 -24 11 -11 14 -46 4 -46 -5 0 -12 6 -14 13 -4 9 -6 9 -6
0 -2 -20 21 -27 34 -10 7 9 15 14 18 10 10 -9 9 -35 -1 -29 -4 2 -14 0 -22 -5
-11 -7 -8 -8 10 -6 17 3 26 11 28 26 3 22 5 22 23 6 16 -15 23 -16 49 -5 17 7
33 10 37 7 3 -4 -7 -11 -22 -17 -15 -6 -25 -13 -22 -16 3 -3 15 -1 26 6 12 6
26 8 31 5 5 -3 18 -1 27 4 10 6 14 11 8 11 -5 0 1 7 13 16 12 8 20 20 17 25
-4 5 2 9 12 9 10 0 23 8 30 19 10 16 8 18 -10 17 -12 -1 -28 2 -35 8 -16 12
-73 16 -66 4 5 -7 -10 -12 -28 -9 -5 0 -8 -4 -8 -9 0 -6 -11 -3 -25 6 -14 9
-25 12 -25 8 0 -5 -4 -3 -9 5 -6 9 -11 10 -15 2z m169 -31 c4 0 1 8 -6 18 -13
16 -12 16 6 1 11 -9 27 -14 35 -12 13 4 13 3 0 -6 -8 -5 -18 -7 -22 -5 -4 3
-9 0 -9 -5 -1 -6 -2 -17 -3 -23 -1 -7 -7 -12 -13 -11 -7 2 -15 -6 -18 -17 -8
-27 -19 -25 -33 4 -10 22 -9 24 14 21 13 -1 28 3 33 9 14 17 -92 14 -112 -3
-10 -8 -17 -9 -17 -3 0 6 8 15 18 21 15 9 15 10 -5 8 -12 0 -19 -5 -16 -11 4
-5 1 -6 -8 0 -11 6 -10 2 2 -16 9 -13 21 -25 28 -26 6 -1 7 0 1 3 -5 2 -7 9
-4 14 3 6 11 5 20 -2 12 -10 14 -10 12 1 -2 7 2 14 8 17 26 9 8 -27 -19 -38
-25 -11 -31 -10 -41 3 -7 10 -23 15 -40 13 -15 -2 -25 -1 -22 2 3 4 1 12 -5
19 -17 21 10 28 33 7 12 -10 19 -13 15 -7 -4 6 2 19 11 28 16 14 21 14 38 2
12 -10 24 -11 36 -5 10 6 19 5 23 -1 3 -5 11 -10 17 -10 7 0 7 4 -1 13 -16 20
-1 30 19 12 9 -8 20 -15 25 -15z"/>
<path d="M2000 726 c0 -2 8 -10 18 -17 15 -13 16 -12 3 4 -13 16 -21 21 -21
13z"/>
<path d="M1830 696 c0 -2 7 -9 15 -16 13 -11 14 -10 9 4 -5 14 -24 23 -24 12z"/>
<path d="M2136 727 c3 -10 9 -15 12 -12 3 3 0 11 -7 18 -10 9 -11 8 -5 -6z"/>
<path d="M270 721 c0 -6 4 -13 10 -16 6 -3 7 1 4 9 -7 18 -14 21 -14 7z"/>
<path d="M2188 719 c-10 -6 -18 -15 -18 -20 0 -6 4 -8 9 -4 6 3 14 -3 20 -12
6 -11 11 -13 11 -5 0 7 4 11 8 8 4 -2 8 4 8 14 0 10 -3 17 -7 14 -4 -2 -9 0
-11 5 -2 6 -10 6 -20 0z m22 -19 c0 -5 -2 -10 -4 -10 -3 0 -8 5 -11 10 -3 6
-1 10 4 10 6 0 11 -4 11 -10z"/>
<path d="M2284 695 c35 -24 67 -36 36 -14 -12 9 -11 10 7 6 13 -3 25 -1 28 3
6 9 24 8 41 -3 7 -4 17 0 23 7 8 9 8 16 2 20 -5 4 -12 3 -15 -2 -6 -10 -66 -9
-83 1 -6 4 -14 3 -18 -3 -4 -7 -12 -7 -25 0 -35 19 -33 10 4 -15z"/>
<path d="M2599 703 c-13 -16 -12 -17 3 -5 10 8 19 9 22 3 6 -10 31 -9 42 1 3
4 -2 5 -13 4 -10 -2 -23 1 -29 5 -7 6 -16 3 -25 -8z"/>
<path d="M2725 710 c-4 -7 102 -7 109 0 3 3 -20 5 -50 5 -31 0 -57 -2 -59 -5z"/>
<path d="M2686 698 c3 -5 10 -6 15 -3 13 9 11 12 -6 12 -8 0 -12 -4 -9 -9z"/>
<path d="M2553 677 c0 -8 6 -14 14 -14 9 0 10 4 2 14 -6 7 -12 13 -14 13 -1 0
-2 -6 -2 -13z"/>
<path d="M346 663 c-6 -14 -5 -15 5 -6 7 7 10 15 7 18 -3 3 -9 -2 -12 -12z"/>
<path d="M1720 678 c0 -3 9 -15 20 -28 11 -13 20 -19 20 -14 0 5 5 2 11 -6 9
-13 10 -13 6 2 -3 9 -3 19 1 21 4 2 1 2 -7 0 -8 -2 -22 4 -32 13 -11 10 -19
15 -19 12z"/>
<path d="M1464 658 c-4 -7 -4 -10 1 -6 4 4 14 3 22 -3 14 -12 19 -34 5 -25 -4
2 -14 0 -22 -5 -12 -7 -10 -8 7 -6 32 4 36 12 21 36 -15 24 -24 26 -34 9z"/>
<path d="M3117 656 c-4 -10 -3 -15 3 -11 6 3 10 1 10 -6 0 -7 3 -10 6 -6 3 3
2 13 -4 22 -8 16 -9 16 -15 1z"/>
<path d="M1532 640 c0 -14 2 -19 5 -12 2 6 2 18 0 25 -3 6 -5 1 -5 -13z"/>
<path d="M1650 651 c0 -6 4 -13 10 -16 6 -3 7 1 4 9 -7 18 -14 21 -14 7z"/>
<path d="M1710 651 c0 -7 -4 -10 -9 -6 -6 3 -14 -3 -20 -13 -7 -14 -6 -19 4
-19 7 0 11 7 7 15 -3 10 -1 13 6 8 12 -7 28 12 18 21 -3 4 -6 1 -6 -6z"/>
<path d="M3036 645 c-9 -26 -7 -32 5 -12 6 10 9 21 6 23 -2 3 -7 -2 -11 -11z"/>
<path d="M310 642 c0 -5 7 -9 15 -9 8 0 12 4 9 9 -3 4 -9 8 -15 8 -5 0 -9 -4
-9 -8z"/>
<path d="M429 638 c-1 -7 -1 -26 -1 -41 1 -23 -2 -26 -13 -17 -8 6 -11 19 -8
28 7 19 4 17 -17 -13 -8 -11 -10 -17 -6 -13 12 10 38 -11 30 -24 -3 -5 4 -20
15 -32 14 -15 19 -29 15 -40 -5 -13 -2 -17 11 -14 9 2 22 -5 28 -14 9 -14 8
-20 -7 -31 -19 -14 -15 -38 7 -36 9 0 9 2 0 6 -7 2 -13 9 -13 14 0 6 5 7 10 4
6 -3 10 -1 10 5 0 6 4 9 9 6 10 -6 9 -20 -3 -48 -5 -10 -6 -23 -3 -30 3 -7 6
-3 6 10 1 14 5 20 12 17 6 -4 8 -14 5 -24 -5 -12 -2 -11 9 3 8 11 15 25 15 30
0 6 -5 4 -10 -4 -5 -8 -10 -13 -11 -10 0 3 -2 13 -4 23 -2 9 1 17 5 17 16 0
40 -31 34 -42 -4 -6 -2 -8 3 -5 19 12 36 -19 24 -42 -8 -14 -8 -22 1 -27 6 -4
8 -3 5 3 -4 6 0 13 8 17 8 3 17 1 20 -4 4 -6 1 -10 -6 -10 -7 0 -10 -3 -6 -6
3 -3 11 -3 17 1 8 5 8 11 -1 21 -14 17 2 19 19 2 9 -9 12 -9 12 1 0 7 4 10 10
6 5 -3 7 -12 4 -19 -3 -8 -1 -17 5 -21 7 -3 8 0 5 9 -3 9 -2 16 4 16 18 0 21
-29 4 -39 -9 -5 -14 -13 -10 -17 4 -4 17 4 28 17 l20 24 19 -22 c15 -18 20
-20 25 -8 3 8 12 12 20 9 8 -3 17 -1 21 5 3 6 11 11 17 11 6 0 5 -7 -3 -17
-10 -11 -10 -14 -1 -9 12 7 16 -3 13 -34 -2 -12 0 -13 7 -1 5 7 16 18 23 23
11 7 9 8 -5 4 -13 -4 -17 -2 -13 8 3 7 0 19 -6 25 -8 8 -8 11 1 11 7 0 15 -7
19 -16 3 -8 15 -14 27 -12 24 3 46 -8 46 -24 0 -6 -6 -6 -16 2 -12 11 -18 10
-32 -3 -9 -10 -11 -17 -5 -17 6 0 14 6 17 13 4 9 9 8 18 -5 11 -14 13 -14 31
9 16 19 22 22 29 11 8 -10 9 -9 4 4 -3 10 -1 20 4 23 6 4 10 1 10 -4 0 -6 7
-11 15 -11 18 0 19 12 3 28 -9 9 -9 12 -1 12 7 0 15 -5 18 -10 4 -6 11 -8 16
-5 5 4 9 1 9 -4 0 -6 -5 -11 -12 -11 -6 0 -8 -3 -5 -6 10 -11 38 18 33 32 -3
7 -1 16 4 19 9 6 14 -8 11 -28 0 -4 4 -7 9 -7 6 0 8 11 4 26 -5 19 -4 25 5 20
6 -4 11 -14 11 -22 0 -8 6 -14 13 -14 6 -1 1 -7 -13 -15 -14 -8 -20 -14 -15
-15 20 0 55 31 55 51 0 10 -3 20 -7 20 -24 4 -101 4 -98 -1 1 -3 -3 -10 -10
-17 -10 -10 -14 -9 -19 4 -5 12 -9 13 -21 3 -15 -13 -39 -4 -30 11 4 5 1 9 -4
9 -6 0 -11 -5 -11 -12 0 -6 -12 -1 -27 13 -14 13 -23 18 -19 12 8 -15 -3 -17
-23 -4 -9 6 -20 2 -33 -11 -15 -15 -22 -17 -34 -8 -7 7 -11 16 -8 21 3 5 2 9
-3 8 -17 -3 -33 1 -32 9 3 19 -2 23 -16 12 -8 -7 -12 -17 -9 -24 3 -6 -1 -3
-9 7 -12 14 -16 15 -20 4 -3 -9 4 -19 19 -26 34 -15 36 -14 24 9 -16 30 -7 24
20 -12 18 -25 19 -29 5 -18 -14 11 -17 11 -11 2 7 -11 4 -12 -12 -3 -14 7 -23
8 -27 1 -4 -6 -11 -7 -17 -4 -6 4 -5 10 3 15 12 7 11 9 -1 10 -8 1 -19 1 -24
0 -5 -1 -4 5 3 13 15 18 7 34 -36 70 -34 28 -59 18 -29 -12 13 -14 16 -14 16
-2 1 11 3 11 11 -3 6 -9 16 -14 22 -11 7 4 9 4 5 -1 -4 -4 -3 -14 3 -21 7 -8
6 -14 -2 -20 -7 -4 -9 -3 -5 4 4 7 -1 10 -14 7 -13 -3 -18 0 -14 7 5 7 2 8 -6
3 -9 -6 -11 -4 -5 5 6 9 4 11 -5 5 -9 -6 -11 -4 -5 6 7 11 5 11 -11 -1 -18
-14 -18 -14 -4 5 11 16 11 17 0 8 -8 -7 -18 -13 -24 -13 -5 0 -1 7 10 15 16
13 16 14 2 9 -11 -4 -18 -1 -18 6 0 10 -3 10 -15 0 -9 -7 -18 -10 -22 -6 -3 3
-1 6 5 6 7 0 11 3 11 8 -5 30 3 35 21 12 13 -17 20 -20 20 -10 0 8 -9 21 -21
28 -12 7 -18 16 -15 19 3 3 0 15 -6 27 -7 11 -12 23 -11 26 3 10 -36 9 -42 -1
-4 -5 -11 -7 -16 -4 -5 3 -6 -1 -3 -9 3 -8 -3 -19 -14 -25 -16 -8 -21 -7 -26
5 -4 12 -1 14 13 9 15 -5 19 -1 18 14 0 11 -6 17 -12 14 -5 -3 -5 0 2 7 6 7 9
18 7 25 -3 7 -1 16 5 20 6 3 9 0 5 -8 -6 -17 21 -43 31 -27 3 5 2 10 -4 10 -5
0 -8 9 -6 19 2 11 -6 27 -17 38 -12 10 -18 13 -15 6 13 -21 -12 -24 -25 -3
-14 23 -27 26 -29 8z m31 -23 c9 -11 16 -12 25 -5 10 8 15 8 21 -1 4 -7 3 -9
-3 -6 -13 8 -35 -16 -31 -33 2 -7 -3 -15 -9 -17 -7 -3 -13 0 -13 7 0 6 5 8 12
4 7 -4 8 -3 4 5 -4 6 -11 9 -16 6 -13 -8 -8 -43 6 -38 7 2 14 0 18 -5 3 -5 -4
-8 -15 -7 -26 2 -41 25 -28 42 6 7 8 17 5 22 -4 5 -1 13 5 17 8 4 7 9 -2 15
-8 5 -9 9 -3 9 6 0 17 -7 24 -15z m97 -127 c-6 -4 -15 -4 -19 -2 -4 3 -8 -1
-8 -8 0 -10 -3 -9 -11 2 -9 13 -10 13 -6 0 2 -8 12 -15 23 -15 18 0 19 -3 12
-35 -2 -10 4 -15 19 -14 12 0 20 -3 17 -7 -2 -5 5 -13 16 -19 11 -6 20 -8 20
-4 0 4 9 -1 20 -11 11 -10 20 -14 20 -10 0 4 8 1 18 -8 10 -10 22 -15 25 -12
4 3 5 2 2 -2 -3 -3 0 -12 6 -20 9 -10 15 -11 26 -1 12 10 14 9 11 -7 -1 -10 3
-19 10 -21 7 -1 8 0 2 3 -19 9 0 22 25 17 28 -5 31 2 13 26 -7 9 -4 7 7 -5 20
-20 21 -20 39 -3 14 13 23 15 37 8 12 -7 20 -6 24 1 5 7 14 4 26 -7 10 -9 19
-14 19 -9 0 4 7 2 15 -5 12 -10 18 -10 33 1 14 11 15 11 5 -1 -10 -10 -10 -17
-1 -29 10 -13 10 -14 -2 -4 -11 10 -18 9 -37 -9 -22 -20 -24 -21 -42 -4 -11
10 -25 15 -31 11 -6 -4 -19 0 -28 8 -21 18 -49 18 -56 1 -3 -8 -12 -11 -20 -8
-8 3 -17 1 -21 -5 -4 -8 -11 -6 -22 4 -8 9 -20 14 -26 12 -14 -4 -60 40 -53
51 3 5 -1 9 -8 9 -9 0 -12 -7 -8 -15 4 -12 1 -14 -13 -9 -9 4 -25 2 -34 -5
-13 -10 -14 -10 -4 2 10 11 7 18 -15 38 -15 13 -21 21 -14 18 6 -4 12 -5 12
-2 0 3 -18 15 -41 26 -34 18 -39 24 -33 43 3 12 3 19 -1 15 -5 -4 -14 -3 -20
2 -9 8 -6 17 14 39 l26 29 21 -21 c13 -14 17 -24 11 -29z m504 -161 c-6 -8 -9
-16 -6 -19 3 -2 -2 -5 -10 -5 -13 0 -13 3 2 19 19 21 31 25 14 5z m76 -2 c9
-25 -4 -29 -17 -6 -7 15 -7 21 0 21 6 0 13 -7 17 -15z"/>
<path d="M446 602 c-3 -5 1 -9 9 -9 8 0 12 4 9 9 -3 4 -7 8 -9 8 -2 0 -6 -4
-9 -8z"/>
<path d="M522 525 c5 -5 -1 -14 -12 -22 -11 -8 -20 -20 -20 -26 0 -7 5 -4 11
6 6 9 14 15 19 12 4 -3 10 2 14 10 3 8 0 17 -7 21 -7 4 -9 4 -5 -1z"/>
<path d="M535 450 c-4 -6 -11 -7 -17 -4 -7 4 -8 2 -4 -5 6 -9 11 -9 22 0 14
11 18 19 10 19 -3 0 -8 -5 -11 -10z"/>
<path d="M595 370 c3 -5 8 -10 11 -10 2 0 4 5 4 10 0 6 -5 10 -11 10 -5 0 -7
-4 -4 -10z"/>
<path d="M624 366 c1 -8 5 -18 8 -22 4 -3 5 1 4 10 -1 8 -5 18 -8 22 -4 3 -5
-1 -4 -10z"/>
<path d="M671 337 c2 -1 13 -9 24 -17 19 -14 19 -14 6 3 -7 9 -18 17 -24 17
-6 0 -8 -1 -6 -3z"/>
<path d="M854 329 c-10 -17 23 -46 37 -32 14 14 41 5 32 -11 -4 -6 2 -4 12 4
17 14 18 13 12 -5 -7 -19 -7 -19 8 -1 14 19 11 41 -5 31 -4 -3 -14 2 -21 11
-11 14 -15 13 -29 -7 -17 -22 -41 -19 -39 4 0 9 2 9 6 0 5 -15 23 -17 23 -4 0
14 -29 21 -36 10z m76 -14 c11 -13 10 -14 -4 -9 -9 3 -16 10 -16 15 0 13 6 11
20 -6z"/>
<path d="M363 627 c23 -19 3 -34 -21 -16 -15 12 -15 11 1 -6 16 -18 18 -18 33
-3 15 15 14 17 -7 28 -22 10 -22 10 -6 -3z"/>
<path d="M1733 623 c4 -3 -1 -16 -10 -27 -18 -21 -18 -21 4 -2 20 16 23 36 6
36 -4 0 -3 -3 0 -7z"/>
<path d="M1790 620 c0 -5 5 -10 11 -10 5 0 7 5 4 10 -3 6 -8 10 -11 10 -2 0
-4 -4 -4 -10z"/>
<path d="M1876 613 c-6 -14 -5 -15 5 -6 7 7 10 15 7 18 -3 3 -9 -2 -12 -12z"/>
<path d="M2780 620 c0 -5 5 -10 11 -10 5 0 7 5 4 10 -3 6 -8 10 -11 10 -2 0
-4 -4 -4 -10z"/>
<path d="M2951 607 c-13 -21 -12 -21 5 -5 10 10 16 20 13 22 -3 3 -11 -5 -18
-17z"/>
<path d="M3193 612 c0 -12 5 -22 9 -22 11 0 10 12 -2 30 -7 12 -9 10 -7 -8z"/>
<path d="M3270 620 c-11 -7 -11 -10 -2 -10 7 0 10 -4 7 -10 -4 -6 1 -7 11 -3
11 4 13 8 6 11 -7 2 -10 8 -6 13 7 11 3 11 -16 -1z"/>
<path d="M3230 616 c0 -2 8 -10 18 -17 15 -13 16 -12 3 4 -13 16 -21 21 -21
13z"/>
<path d="M3326 603 c-4 -9 -1 -21 5 -27 9 -8 10 -8 5 2 -4 7 -2 19 4 27 7 9 8
15 2 15 -5 0 -13 -8 -16 -17z"/>
<path d="M1513 590 c5 -29 13 -33 13 -5 0 14 -4 25 -8 25 -4 0 -7 -9 -5 -20z"/>
<path d="M1895 601 c-3 -5 0 -13 6 -17 8 -5 9 -3 4 6 -6 10 -4 12 9 7 10 -4
15 -3 11 3 -8 13 -22 13 -30 1z"/>
<path d="M2130 595 c0 -8 2 -15 4 -15 2 0 6 7 10 15 3 8 1 15 -4 15 -6 0 -10
-7 -10 -15z"/>
<path d="M2826 602 c-2 -4 4 -8 14 -8 10 0 16 4 14 8 -3 4 -9 8 -14 8 -5 0
-11 -4 -14 -8z"/>
<path d="M2977 595 c-3 -6 3 -11 12 -11 10 0 18 5 18 11 0 15 -25 15 -30 0z"/>
<path d="M4530 600 c0 -5 5 -10 11 -10 5 0 7 5 4 10 -3 6 -8 10 -11 10 -2 0
-4 -4 -4 -10z"/>
<path d="M1470 596 c0 -2 8 -10 18 -17 15 -13 16 -12 3 4 -13 16 -21 21 -21
13z"/>
<path d="M1754 586 c1 -8 5 -18 8 -22 4 -3 5 1 4 10 -1 8 -5 18 -8 22 -4 3 -5
-1 -4 -10z"/>
<path d="M2075 590 c-3 -6 1 -7 9 -4 18 7 21 14 7 14 -6 0 -13 -4 -16 -10z"/>
<path d="M2792 591 c-11 -6 -9 -9 6 -13 15 -4 19 -2 15 8 -6 16 -4 16 -21 5z"/>
<path d="M2910 590 c-9 -6 -10 -10 -3 -10 6 0 15 5 18 10 8 12 4 12 -15 0z"/>
<path d="M1829 577 c6 -8 7 -18 3 -22 -4 -5 -1 -5 6 -1 10 6 10 11 1 22 -6 8
-14 14 -16 14 -3 0 0 -6 6 -13z"/>
<path d="M2150 580 c0 -5 5 -10 10 -10 6 0 10 5 10 10 0 6 -4 10 -10 10 -5 0
-10 -4 -10 -10z"/>
<path d="M2260 570 c6 -11 13 -20 16 -20 2 0 0 9 -6 20 -6 11 -13 20 -16 20
-2 0 0 -9 6 -20z"/>
<path d="M2353 571 c0 -11 5 -18 9 -15 4 3 5 11 1 19 -7 21 -12 19 -10 -4z"/>
<path d="M2516 573 c-4 -10 0 -23 11 -32 15 -15 16 -15 5 0 -7 9 -10 24 -6 33
3 9 4 16 1 16 -3 0 -8 -8 -11 -17z"/>
<path d="M2710 583 c0 -6 8 -17 18 -24 16 -13 16 -13 2 6 -8 11 -16 22 -17 24
-2 2 -3 0 -3 -6z"/>
<path d="M3020 586 c0 -2 8 -10 18 -17 15 -13 16 -12 3 4 -13 16 -21 21 -21
13z"/>
<path d="M1976 567 c3 -10 9 -15 12 -12 3 3 0 11 -7 18 -10 9 -11 8 -5 -6z"/>
<path d="M2010 570 c-8 -5 -12 -12 -9 -15 4 -3 12 1 19 10 14 17 11 19 -10 5z"/>
<path d="M2450 576 c0 -2 7 -9 15 -16 9 -7 15 -8 15 -2 0 5 -7 12 -15 16 -8 3
-15 4 -15 2z"/>
<path d="M2628 573 c7 -3 16 -2 19 1 4 3 -2 6 -13 5 -11 0 -14 -3 -6 -6z"/>
<path d="M2670 571 c0 -6 4 -13 10 -16 6 -3 7 1 4 9 -7 18 -14 21 -14 7z"/>
<path d="M2834 566 c1 -8 5 -18 8 -22 4 -3 5 1 4 10 -1 8 -5 18 -8 22 -4 3 -5
-1 -4 -10z"/>
<path d="M2935 569 c-4 -6 -5 -12 -2 -15 2 -3 7 2 10 11 7 17 1 20 -8 4z"/>
<path d="M330 560 c0 -5 5 -10 11 -10 5 0 7 5 4 10 -3 6 -8 10 -11 10 -2 0 -4
-4 -4 -10z"/>
<path d="M380 554 c0 -9 -5 -12 -12 -8 -7 4 -8 3 -4 -4 10 -16 14 -15 26 8 7
14 7 20 0 20 -5 0 -10 -7 -10 -16z"/>
<path d="M1906 558 c3 -5 10 -6 15 -3 13 9 11 12 -6 12 -8 0 -12 -4 -9 -9z"/>
<path d="M2110 558 c0 -6 3 -8 7 -5 3 4 13 1 22 -6 14 -11 14 -10 2 6 -15 20
-31 22 -31 5z"/>
<path d="M2210 560 c0 -5 5 -10 11 -10 5 0 7 5 4 10 -3 6 -8 10 -11 10 -2 0
-4 -4 -4 -10z"/>
<path d="M2295 561 c-3 -5 0 -13 6 -17 7 -4 9 -3 5 4 -3 5 0 13 6 15 9 4 10 6
1 6 -6 1 -14 -3 -18 -8z"/>
<path d="M2415 560 c-3 -5 -1 -10 4 -10 6 0 11 5 11 10 0 6 -2 10 -4 10 -3 0
-8 -4 -11 -10z"/>
<path d="M2557 563 c-10 -9 -9 -23 1 -23 5 0 9 7 9 15 0 17 -1 18 -10 8z"/>
<path d="M3357 559 c7 -7 15 -10 18 -7 3 3 -2 9 -12 12 -14 6 -15 5 -6 -5z"/>
<path d="M1495 551 c-3 -5 -2 -12 3 -15 5 -3 9 1 9 9 0 17 -3 19 -12 6z"/>
<path d="M1526 542 c-3 -5 1 -9 9 -9 8 0 12 4 9 9 -3 4 -7 8 -9 8 -2 0 -6 -4
-9 -8z"/>
<path d="M2436 535 c-9 -26 -7 -32 5 -12 6 10 9 21 6 23 -2 3 -7 -2 -11 -11z"/>
<path d="M2588 543 c7 -3 16 -2 19 1 4 3 -2 6 -13 5 -11 0 -14 -3 -6 -6z"/>
<path d="M2627 539 c7 -7 15 -10 18 -7 3 3 -2 9 -12 12 -14 6 -15 5 -6 -5z"/>
<path d="M3030 541 c0 -6 4 -13 10 -16 6 -3 7 1 4 9 -7 18 -14 21 -14 7z"/>
<path d="M3155 540 c-3 -5 -1 -10 4 -10 6 0 11 5 11 10 0 6 -2 10 -4 10 -3 0
-8 -4 -11 -10z"/>
<path d="M3216 538 c3 -4 11 -5 19 -1 21 7 19 12 -4 10 -11 0 -18 -5 -15 -9z"/>
<path d="M3346 535 c6 -14 4 -16 -7 -10 -8 4 -11 4 -6 0 12 -13 54 -12 54 2 0
7 -4 10 -9 7 -5 -3 -16 0 -24 7 -12 10 -13 9 -8 -6z"/>
<path d="M1749 523 c-13 -16 -12 -17 4 -4 16 13 21 21 13 21 -2 0 -10 -8 -17
-17z"/>
<path d="M1955 529 c-4 -6 -5 -12 -2 -15 2 -3 7 2 10 11 7 17 1 20 -8 4z"/>
<path d="M2396 527 c3 -10 9 -15 12 -12 3 3 0 11 -7 18 -10 9 -11 8 -5 -6z"/>
<path d="M390 519 c0 -5 4 -8 9 -5 5 3 12 -1 15 -10 4 -9 9 -14 13 -11 7 8
-15 37 -28 37 -5 0 -9 -5 -9 -11z"/>
<path d="M1995 521 c-3 -5 -2 -12 3 -15 5 -3 9 1 9 9 0 17 -3 19 -12 6z"/>
<path d="M2300 526 c0 -2 8 -10 18 -17 15 -13 16 -12 3 4 -13 16 -21 21 -21
13z"/>
<path d="M2595 521 c-3 -5 -2 -12 3 -15 5 -3 9 1 9 9 0 17 -3 19 -12 6z"/>
<path d="M2816 518 c3 -5 10 -6 15 -3 13 9 11 12 -6 12 -8 0 -12 -4 -9 -9z"/>
<path d="M3408 518 c11 -14 10 -17 -5 -21 -16 -4 -16 -5 -1 -6 25 -2 30 15 10
30 -15 13 -16 12 -4 -3z"/>
<path d="M2116 507 c3 -10 9 -15 12 -12 3 3 0 11 -7 18 -10 9 -11 8 -5 -6z"/>
<path d="M2755 509 c-4 -6 -5 -12 -2 -15 2 -3 7 2 10 11 7 17 1 20 -8 4z"/>
<path d="M1415 500 c3 -5 8 -10 11 -10 2 0 4 5 4 10 0 6 -5 10 -11 10 -5 0 -7
-4 -4 -10z"/>
<path d="M2215 501 c-3 -5 -2 -12 3 -15 5 -3 9 1 9 9 0 17 -3 19 -12 6z"/>
<path d="M2253 495 c0 -8 4 -12 9 -9 5 3 6 10 3 15 -9 13 -12 11 -12 -6z"/>
<path d="M2530 500 c0 -5 5 -10 11 -10 5 0 7 5 4 10 -3 6 -8 10 -11 10 -2 0
-4 -4 -4 -10z"/>
<path d="M407 479 c7 -7 15 -10 18 -7 3 3 -2 9 -12 12 -14 6 -15 5 -6 -5z"/>
<path d="M3426 482 c-3 -5 1 -9 9 -9 8 0 15 4 15 9 0 4 -4 8 -9 8 -6 0 -12 -4
-15 -8z"/>
<path d="M4385 480 c-3 -6 1 -7 9 -4 18 7 21 14 7 14 -6 0 -13 -4 -16 -10z"/>
<path d="M333 465 c0 -8 4 -12 9 -9 5 3 6 10 3 15 -9 13 -12 11 -12 -6z"/>
<path d="M3355 470 c-4 -6 -11 -7 -17 -4 -7 4 -8 2 -4 -5 6 -9 11 -9 22 0 14
11 18 19 10 19 -3 0 -8 -5 -11 -10z"/>
<path d="M386 462 c-3 -5 1 -9 9 -9 8 0 12 4 9 9 -3 4 -7 8 -9 8 -2 0 -6 -4
-9 -8z"/>
<path d="M1415 460 c3 -5 8 -10 11 -10 2 0 4 5 4 10 0 6 -5 10 -11 10 -5 0 -7
-4 -4 -10z"/>
<path d="M450 456 c0 -2 7 -7 16 -10 8 -3 12 -2 9 4 -6 10 -25 14 -25 6z"/>
<path d="M4353 438 c-12 -5 -6 -6 15 -4 19 3 36 7 39 10 8 7 -32 3 -54 -6z"/>
<path d="M4430 439 c0 -5 5 -7 10 -4 6 3 10 8 10 11 0 2 -4 4 -10 4 -5 0 -10
-5 -10 -11z"/>
<path d="M438 433 c7 -3 16 -2 19 1 4 3 -2 6 -13 5 -11 0 -14 -3 -6 -6z"/>
<path d="M3428 433 c7 -3 16 -2 19 1 4 3 -2 6 -13 5 -11 0 -14 -3 -6 -6z"/>
<path d="M3502 428 c-14 -14 -16 -38 -2 -38 5 0 6 8 3 18 -6 15 -5 15 10 3 11
-9 17 -10 17 -2 0 6 -5 11 -11 11 -5 0 -7 5 -4 10 8 14 2 13 -13 -2z"/>
<path d="M4310 420 c0 -5 5 -10 10 -10 6 0 10 5 10 10 0 6 -4 10 -10 10 -5 0
-10 -4 -10 -10z"/>
<path d="M356 407 c3 -10 9 -15 12 -12 3 3 0 11 -7 18 -10 9 -11 8 -5 -6z"/>
<path d="M650 406 c0 -2 8 -10 18 -17 15 -13 16 -12 3 4 -13 16 -21 21 -21 13z"/>
<path d="M1353 393 c0 -9 4 -10 14 -2 7 6 13 12 13 14 0 1 -6 2 -13 2 -8 0
-14 -6 -14 -14z"/>
<path d="M4280 401 c0 -5 7 -11 14 -14 10 -4 13 -1 9 9 -6 15 -23 19 -23 5z"/>
<path d="M456 375 c5 -11 2 -14 -10 -9 -10 4 -16 1 -16 -7 0 -7 3 -9 7 -6 3 4
11 3 17 -3 8 -6 12 -3 13 10 1 11 -2 22 -8 25 -5 3 -6 -1 -3 -10z"/>
<path d="M4370 379 c0 -5 5 -7 10 -4 6 3 10 8 10 11 0 2 -4 4 -10 4 -5 0 -10
-5 -10 -11z"/>
<path d="M3469 363 c-13 -16 -12 -17 4 -4 16 13 21 21 13 21 -2 0 -10 -8 -17
-17z"/>
<path d="M396 358 c3 -5 10 -6 15 -3 13 9 11 12 -6 12 -8 0 -12 -4 -9 -9z"/>
<path d="M1320 355 c-7 -9 -11 -17 -9 -20 3 -2 10 5 17 15 14 24 10 26 -8 5z"/>
<path d="M4310 366 c0 -2 7 -7 16 -10 8 -3 12 -2 9 4 -6 10 -25 14 -25 6z"/>
<path d="M3516 351 c-3 -5 1 -11 9 -14 9 -4 12 -1 8 9 -6 16 -10 17 -17 5z"/>
<path d="M535 341 c-3 -5 0 -13 6 -17 8 -5 9 -3 4 6 -6 10 -4 12 8 7 10 -3 17
-2 17 3 0 13 -27 13 -35 1z"/>
<path d="M3480 340 c-9 -6 -10 -10 -3 -10 6 0 15 5 18 10 8 12 4 12 -15 0z"/>
<path d="M1193 333 c-19 -7 -16 -16 10 -32 20 -13 21 -13 9 2 -8 9 -11 21 -7
27 7 11 6 11 -12 3z"/>
<path d="M1226 323 c-6 -14 -5 -15 5 -6 7 7 10 15 7 18 -3 3 -9 -2 -12 -12z"/>
<path d="M4237 311 c-10 -14 -10 -14 4 -4 9 7 18 10 21 7 3 -3 8 -1 12 4 9 16
-24 9 -37 -7z"/>
<path d="M455 300 c3 -5 8 -10 11 -10 2 0 4 5 4 10 0 6 -5 10 -11 10 -5 0 -7
-4 -4 -10z"/>
<path d="M550 303 c0 -6 8 -17 18 -24 16 -13 16 -13 2 6 -8 11 -16 22 -17 24
-2 2 -3 0 -3 -6z"/>
<path d="M1157 295 c-4 -8 -3 -16 1 -19 4 -3 9 4 9 15 2 23 -3 25 -10 4z"/>
<path d="M1300 300 c8 -5 20 -10 25 -10 6 0 3 5 -5 10 -8 5 -19 10 -25 10 -5
0 -3 -5 5 -10z"/>
<path d="M3548 295 c4 -5 7 -13 7 -17 0 -3 3 -9 7 -13 3 -4 5 1 4 12 -2 10 2
21 8 25 6 4 1 6 -11 5 -12 0 -19 -6 -15 -12z"/>
<path d="M4047 290 c3 -11 9 -20 15 -20 5 0 4 9 -2 20 -6 11 -12 20 -14 20 -2
0 -2 -9 1 -20z"/>
<path d="M636 291 c-3 -5 1 -11 9 -14 9 -4 12 -1 8 9 -6 16 -10 17 -17 5z"/>
<path d="M3650 275 c0 -8 2 -15 4 -15 2 0 6 7 10 15 3 8 1 15 -4 15 -6 0 -10
-7 -10 -15z"/>
<path d="M4111 287 c2 -1 12 -9 22 -16 15 -12 17 -12 11 3 -3 9 -13 16 -22 16
-8 0 -13 -1 -11 -3z"/>
<path d="M586 265 c-11 -8 -15 -15 -9 -15 6 0 16 7 23 15 16 19 11 19 -14 0z"/>
<path d="M1055 260 c-14 -16 -20 -17 -27 -8 -6 10 -8 9 -8 -4 0 -10 7 -16 19
-15 11 0 17 5 15 9 -3 4 -1 8 4 8 6 0 12 7 16 15 7 20 3 19 -19 -5z"/>
<path d="M627 256 c5 -14 3 -17 -7 -11 -8 5 -11 4 -7 -3 8 -11 33 -11 42 1 3
4 2 5 -2 2 -3 -3 -12 3 -20 13 -12 16 -13 16 -6 -2z"/>
<path d="M705 260 c-3 -6 1 -7 9 -4 18 7 21 14 7 14 -6 0 -13 -4 -16 -10z"/>
<path d="M1110 250 c-6 -11 -8 -20 -6 -20 3 0 10 9 16 20 6 11 8 20 6 20 -3 0
-10 -9 -16 -20z"/>
<path d="M1185 260 c-3 -6 1 -7 9 -4 18 7 21 14 7 14 -6 0 -13 -4 -16 -10z"/>
<path d="M1246 258 c3 -5 10 -6 15 -3 13 9 11 12 -6 12 -8 0 -12 -4 -9 -9z"/>
<path d="M3710 260 c0 -5 5 -10 10 -10 6 0 10 5 10 10 0 6 -4 10 -10 10 -5 0
-10 -4 -10 -10z"/>
<path d="M3980 259 c0 -5 5 -7 10 -4 6 3 10 8 10 11 0 2 -4 4 -10 4 -5 0 -10
-5 -10 -11z"/>
<path d="M4070 260 c-9 -6 -10 -10 -3 -10 6 0 15 5 18 10 8 12 4 12 -15 0z"/>
<path d="M496 247 c3 -10 9 -15 12 -12 3 3 0 11 -7 18 -10 9 -11 8 -5 -6z"/>
<path d="M771 244 c0 -11 3 -14 6 -6 3 7 2 16 -1 19 -3 4 -6 -2 -5 -13z"/>
<path d="M793 245 c0 -7 6 -11 14 -8 7 3 13 6 13 8 0 2 -6 5 -13 8 -8 3 -14
-1 -14 -8z"/>
<path d="M990 249 c0 -5 5 -7 10 -4 6 3 10 8 10 11 0 2 -4 4 -10 4 -5 0 -10
-5 -10 -11z"/>
<path d="M3615 251 c-3 -5 -2 -12 3 -15 5 -3 9 1 9 9 0 17 -3 19 -12 6z"/>
<path d="M3773 238 c-2 -18 0 -20 7 -8 12 18 13 30 2 30 -4 0 -9 -10 -9 -22z"/>
<path d="M715 240 c-3 -5 -2 -10 4 -10 5 0 13 5 16 10 3 6 2 10 -4 10 -5 0
-13 -4 -16 -10z"/>
<path d="M3555 240 c3 -5 8 -10 11 -10 2 0 4 5 4 10 0 6 -5 10 -11 10 -5 0 -7
-4 -4 -10z"/>
<path d="M3745 240 c3 -5 8 -10 11 -10 2 0 4 5 4 10 0 6 -5 10 -11 10 -5 0 -7
-4 -4 -10z"/>
<path d="M3876 242 c-2 -4 0 -14 6 -22 8 -12 9 -11 4 4 -5 14 -2 17 9 12 9 -3
13 -2 10 4 -7 12 -22 13 -29 2z"/>
<path d="M3996 233 c-6 -14 -5 -15 5 -6 7 7 10 15 7 18 -3 3 -9 -2 -12 -12z"/>
<path d="M950 230 c0 -5 7 -7 15 -4 8 4 15 8 15 10 0 2 -7 4 -15 4 -8 0 -15
-4 -15 -10z"/>
<path d="M687 219 c7 -7 15 -10 18 -7 3 3 -2 9 -12 12 -14 6 -15 5 -6 -5z"/>
<path d="M856 217 c3 -10 -2 -14 -20 -13 -14 1 -28 5 -32 9 -4 4 -12 7 -18 7
-16 -1 26 -24 44 -25 8 0 20 -3 25 -7 6 -4 11 2 12 12 1 11 -2 22 -8 25 -5 3
-6 0 -3 -8z"/>
<path d="M895 219 c-4 -6 -5 -12 -2 -15 2 -3 7 2 10 11 7 17 1 20 -8 4z"/>
<path d="M990 220 c0 -5 5 -10 10 -10 6 0 10 5 10 10 0 6 -4 10 -10 10 -5 0
-10 -4 -10 -10z"/>
<path d="M1115 220 c-3 -6 1 -7 9 -4 18 7 21 14 7 14 -6 0 -13 -4 -16 -10z"/>
<path d="M3790 225 c0 -5 5 -17 10 -25 5 -8 10 -10 10 -5 0 6 -5 17 -10 25 -5
8 -10 11 -10 5z"/>
<path d="M3854 222 c3 -5 0 -13 -6 -15 -9 -4 -10 -6 -1 -6 17 -1 25 16 12 25
-7 4 -9 3 -5 -4z"/>
<path d="M4126 222 c-3 -5 1 -9 9 -9 8 0 12 4 9 9 -3 4 -7 8 -9 8 -2 0 -6 -4
-9 -8z"/>
<path d="M733 205 c0 -8 3 -13 5 -10 3 3 12 -1 21 -7 10 -8 9 -4 -3 10 -23 26
-23 26 -23 7z"/>
<path d="M4015 209 c-4 -6 -5 -12 -2 -15 2 -3 7 2 10 11 7 17 1 20 -8 4z"/>
<path d="M1016 202 c-3 -5 1 -9 9 -9 8 0 12 4 9 9 -3 4 -7 8 -9 8 -2 0 -6 -4
-9 -8z"/>
<path d="M1070 206 c0 -2 7 -7 16 -10 8 -3 12 -2 9 4 -6 10 -25 14 -25 6z"/>
<path d="M3953 193 c0 -9 4 -10 14 -2 7 6 13 12 13 14 0 1 -6 2 -13 2 -8 0
-14 -6 -14 -14z"/>
<path d="M4055 200 c3 -5 8 -10 11 -10 2 0 4 5 4 10 0 6 -5 10 -11 10 -5 0 -7
-4 -4 -10z"/>
<path d="M955 191 c-3 -5 -2 -12 3 -15 5 -3 9 1 9 9 0 17 -3 19 -12 6z"/>
<path d="M3656 182 c-2 -4 -1 -14 4 -22 7 -11 9 -9 7 8 -1 24 -3 26 -11 14z"/>
<path d="M836 158 c3 -5 10 -6 15 -3 13 9 11 12 -6 12 -8 0 -12 -4 -9 -9z"/>
<path d="M876 138 c3 -4 11 -5 19 -1 21 7 19 12 -4 10 -11 0 -18 -5 -15 -9z"/>
<path d="M1015 141 c-3 -5 -2 -12 3 -15 5 -3 9 1 9 9 0 17 -3 19 -12 6z"/>
</g>
</svg>
